<svg width="610" height="638" viewBox="0 0 610 638" fill="none" xmlns="http://www.w3.org/2000/svg">
<path d="M219.744 246.772C246.208 245.727 273.973 245.094 302.77 245.094C469.607 245.094 605.025 264.214 605.025 287.925C605.025 289.571 604.343 291.106 603.187 292.657H604.529L606.511 411.176V414.864C606.676 420.594 606.676 426.339 606.841 431.942V435.266C607.006 445.839 607.171 456.428 607.357 467.001V469.929C608.678 512.111 609.339 554.039 610 595.856C538.637 615.356 425.699 638.686 285.285 637.151C165.019 635.996 66.8828 617.018 0.164673 599.813V292.135H2.0019C1.01103 290.742 0.49496 289.317 0.49496 287.925C0.49496 274.028 47.5816 261.539 120.616 253.784C149.888 250.587 183.495 248.149 219.744 246.772Z" fill="#F9B53F"/>
<path d="M334.375 233.114C336.872 232.988 339.35 232.988 341.847 233.384C349.341 234.523 356.318 237.958 361.149 243.308C366.64 235.663 377.291 231.073 388.604 231.326C399.751 231.722 409.722 236.692 414.552 244.463C419.031 237.847 428.527 234.017 438.168 234.903C447.312 235.663 455.136 240.633 457.799 247.407C460.297 246.125 470.433 240.759 484.573 242.041C501.872 243.577 510.872 253.786 512.028 255.163C514.03 254.023 524.001 248.42 537.976 249.813C554.615 251.475 562.934 261.668 563.925 262.95C571.913 258.487 582.73 257.711 591.38 261.161C604.013 266.131 605.52 276.831 605.52 277.464C605.355 280.155 605.355 282.956 605.355 285.647C574.081 275.185 534.983 264.469 488.743 256.967C420.043 245.856 360.158 245.856 316.064 248.673C264.498 247.518 202.115 249.322 132.424 258.233C82.6748 264.612 38.602 273.396 0.515699 282.703C0.495057 280.915 0.495056 279.269 0.495056 277.464C1.50656 269.946 7.98846 263.583 16.9682 261.161C29.292 257.838 39.758 263.71 40.5837 264.09C41.0998 263.077 46.2605 252.741 61.0616 249.813C76.6883 246.631 88.6612 254.656 89.3424 255.163C93.6568 247.644 102.967 242.548 113.619 242.041C129.266 241.282 138.411 251.095 138.741 251.601C140.743 249.322 145.884 243.957 155.214 241.408C167.187 238.211 181.162 241.028 191.298 248.547C191.814 247.518 195.633 239.873 206.285 237.214C215.265 234.903 225.565 237.325 232.233 243.181C233.719 241.282 237.559 236.945 244.867 234.903C254.528 231.975 266.17 234.143 274.654 240.253C275.48 238.987 279.299 232.861 287.949 230.693C297.775 228.398 309.582 232.117 316.064 240.253C317.736 238.86 324.053 233.89 334.375 233.114Z" fill="#F14947"/>
<path d="M537.977 69.9748C533.992 85.2646 534.488 101.456 532.816 116.889C530.999 133.698 528.832 150.539 526.829 167.475C523.176 200.618 518.841 233.746 514.361 266.89C513.019 277.352 534.323 277.352 535.644 266.89C539.649 234.395 542.807 201.758 545.305 169.137C546.626 152.818 547.452 136.515 548.133 120.197C548.794 104.131 551.787 87.3064 549.784 71.2569C549.289 66.2869 539.484 64.3717 537.977 69.9748ZM443.163 50.4749C440.666 58.1197 442.173 66.4135 442.503 74.185C442.998 82.9854 443.659 91.6432 444.154 100.444C445.166 118.408 445.991 136.515 446.817 154.48C448.489 190.045 449.315 225.595 450.141 261.16C450.306 271.733 471.94 271.733 471.609 261.16C470.268 225.595 467.79 190.045 464.611 154.48C463.125 137.022 461.288 119.564 459.306 101.963C458.295 93.1785 457.469 84.5048 456.292 75.7045C455.136 67.4265 455.136 57.9931 450.987 50.3482C449.48 48.0532 444.319 47.2935 443.163 50.4749ZM381.936 52.8965C377.622 69.7216 381.276 88.9683 381.936 106.173C382.617 125.42 381.936 144.54 381.771 163.66C381.276 201.52 379.955 239.238 376.445 276.956C375.62 286.516 395.251 286.516 396.077 276.956C399.421 239.238 401.237 201.378 400.412 163.66C399.916 145.047 398.244 126.433 397.088 107.835C396.407 98.5283 395.581 89.2215 394.425 79.9147C393.414 70.877 393.083 61.5702 388.934 52.8965C387.758 50.6015 382.783 50.095 381.936 52.8965ZM305.929 67.1733C306.424 100.57 304.752 133.967 306.094 167.348C307.415 200.745 308.427 234.142 309.583 267.523C309.913 277.083 329.544 277.083 329.049 267.523C327.212 234.142 325.209 200.745 323.558 167.348C321.886 133.825 317.241 100.57 314.743 67.1733C314.578 62.8364 305.929 62.8364 305.929 67.1733ZM233.059 58.6421C229.901 74.6915 233.389 92.0231 233.555 108.342C233.72 125.8 234.566 143.131 234.896 160.589C235.392 195.395 234.401 230.438 232.729 265.244C232.233 276.576 255.188 276.576 255.849 265.244C257.686 230.311 257.356 195.522 255.188 160.589C254.198 143.131 252.856 125.673 250.028 108.342C248.706 99.6679 247.034 91.0101 245.527 82.2098C244.206 74.3117 243.711 66.2869 240.057 58.6421C239.211 56.2204 233.72 55.5714 233.059 58.6421ZM166.176 87.3064C160.54 102.739 163.368 121.336 163.203 137.275C163.203 154.369 162.852 171.305 162.687 188.383C162.687 205.462 162.522 222.413 162.357 239.492C162.192 256.966 160.355 274.804 162.027 292.262C162.852 301.948 180.337 301.822 181.493 292.262C183.495 274.914 181.988 256.966 181.823 239.492C181.658 222.413 181.163 205.462 180.667 188.383C180.172 171.305 178.995 154.369 178.004 137.275C176.993 121.336 178.5 102.485 171.337 87.3064C170.511 85.407 167.022 85.2646 166.176 87.3064ZM87.8357 73.5519C88.166 68.7086 96.6503 68.9618 97.3109 73.5519C103.132 107.455 104.969 141.738 107.302 175.768C108.458 192.198 109.635 208.77 110.956 225.215C111.637 233.619 112.112 241.913 112.463 250.318C112.628 258.105 113.784 266.763 110.46 274.281C107.467 280.786 93.3268 282.179 91.3244 274.281C89.3427 266.526 90.9941 258.232 90.9941 250.318C91.1593 241.913 90.6638 233.619 90.4987 225.215C90.0032 208.77 89.5078 192.198 88.8266 175.768C87.5054 141.865 85.6682 107.582 87.8357 73.5519Z" fill="#F14947"/>
<path d="M0.330288 599.181C29.953 607.838 71.7137 618.301 122.599 626.056C199.618 637.658 259.668 637.152 304.917 636.503C353.49 635.87 420.539 634.603 504.7 618.158C548.628 609.485 584.382 599.291 610 591.013C608.183 589.478 606.346 587.816 604.344 586.297C602.197 584.888 595.034 580.82 585.394 581.2C573.916 581.58 563.595 587.816 559.115 597.123C557.278 595.999 548.794 590.76 536.986 591.536C525.343 592.28 515.187 598.548 510.707 607.459C509.861 606.683 502.718 599.814 490.911 599.925C481.085 600.051 472.105 605.164 468.451 612.808C467.44 612.033 457.139 604.641 442.338 606.556C426.69 608.598 420.374 619.171 419.878 619.947C418.206 618.791 409.392 613.062 396.242 613.695C381.276 614.47 373.287 623.002 372.131 624.141C368.642 617.019 359.147 612.429 349.176 613.204C339.185 613.837 330.866 619.694 329.049 627.212C328.203 626.436 316.89 616.623 299.757 618.032C286.297 619.171 278.639 626.579 277.318 627.861C276.637 627.085 268.152 617.525 252.691 617.525C239.376 617.525 231.222 624.537 230.066 625.55C227.403 617.525 218.423 611.653 207.772 611.02C197.471 610.387 187.645 614.47 182.979 621.482C182.154 620.327 175.176 611.526 160.706 609.88C145.058 608.108 134.406 615.99 133.416 616.876C132.59 615.61 127.099 607.316 114.28 604.641C98.9831 601.46 87.0101 609.231 86.1844 609.88C85.5032 608.598 80.1773 599.925 67.0484 596.996C52.4125 593.688 40.7492 600.32 39.5932 600.953C38.0863 594.717 32.265 589.478 24.2968 587.436C15.8125 585.268 6.31675 587.072 0 592.026C0.165144 594.448 0.330288 596.87 0.330288 599.181ZM0.660575 282.702C6.99797 277.859 16.4731 276.197 24.7922 278.492C32.6159 280.66 38.2721 285.883 39.5932 292.262C40.7699 291.613 52.4125 285.25 66.8832 288.685C79.847 291.866 84.8426 300.54 85.5032 301.822C86.3289 301.173 98.3225 293.655 113.454 297.105C126.108 299.907 131.413 308.311 132.094 309.594C133.085 308.818 143.902 300.936 159.364 303.088C173.669 305.003 180.337 313.788 181.163 315.07C185.993 308.058 195.964 304.117 206.12 304.877C216.751 305.763 225.401 311.762 227.898 319.787C229.075 318.774 237.229 311.762 250.523 312.015C265.84 312.268 274.159 322.082 274.655 322.715C275.976 321.322 283.8 314.184 297.28 313.155C314.413 311.889 325.209 321.829 326.056 322.715C328.038 315.197 336.357 309.594 346.348 308.945C356.318 308.438 365.649 313.044 368.973 320.293C369.963 319.154 378.283 310.733 393.084 310.1C406.233 309.594 414.883 315.592 416.369 316.605C416.885 315.83 423.367 305.257 438.994 303.484C453.65 301.822 463.621 309.214 464.611 309.973C468.286 302.455 477.431 297.485 487.236 297.485C498.879 297.485 505.877 304.497 506.703 305.257C511.368 296.33 521.669 290.347 533.167 289.714C544.809 289.065 553.129 294.415 554.945 295.697C559.61 286.516 570.076 280.407 581.389 280.154C591.05 280.027 597.862 284.095 600.029 285.504C601.867 287.023 603.683 288.685 605.52 290.22C579.903 298.118 544.128 307.947 500.386 315.83C416.555 331.135 350.167 331.389 301.924 331.389C257.026 331.389 197.471 331.009 121.443 318.251C71.0325 309.863 29.953 298.751 0.846362 289.571C0.660577 287.419 0.660575 284.997 0.660575 282.702Z" fill="#F14947"/>
<path d="M435.175 553.786C432.182 553.786 429.849 555.575 429.849 557.87C429.849 560.165 432.182 561.953 435.175 561.953C438.168 561.953 440.501 560.165 440.501 557.87C440.501 555.575 438.168 553.786 435.175 553.786ZM469.277 520.658C466.449 520.658 464.281 522.305 464.281 524.473C464.281 526.641 466.449 528.303 469.277 528.303C472.105 528.303 474.273 526.641 474.273 524.473C474.273 522.431 472.105 520.658 469.277 520.658ZM380.781 542.58C377.292 542.58 374.299 544.748 374.299 547.566C374.299 550.352 377.127 552.52 380.781 552.52C384.434 552.52 387.262 550.352 387.262 547.566C387.262 544.748 384.269 542.58 380.781 542.58ZM141.239 559.674C136.595 559.674 132.755 562.586 132.755 566.148C132.755 569.725 136.595 572.653 141.239 572.653C145.905 572.653 149.724 569.725 149.724 566.148C149.724 562.586 145.905 559.674 141.239 559.674ZM523.341 547.566C520.678 547.566 518.676 549.196 518.676 551.111C518.676 553.153 520.843 554.688 523.341 554.688C526.004 554.688 528.006 553.026 528.006 551.111C528.006 549.196 525.839 547.566 523.341 547.566ZM305.083 591.773C301.099 591.773 297.94 594.195 297.94 597.265C297.94 600.32 301.099 602.742 305.083 602.742C309.087 602.742 312.246 600.32 312.246 597.265C312.246 594.195 309.087 591.773 305.083 591.773ZM232.069 544.495C225.401 544.495 220.096 548.563 220.096 553.66C220.096 558.756 225.401 562.856 232.069 562.856C238.716 562.856 244.041 558.756 244.041 553.66C244.041 548.563 238.716 544.495 232.069 544.495ZM149.724 515.942C145.554 515.942 142.23 518.49 142.23 521.671C142.23 524.853 145.554 527.417 149.724 527.417C153.873 527.417 157.196 524.853 157.196 521.671C157.382 518.49 153.873 515.942 149.724 515.942ZM87.0103 541.298C82.5101 541.298 78.8563 544.1 78.8563 547.566C78.8563 550.985 82.5101 553.786 87.0103 553.786C91.4898 553.786 95.1643 550.985 95.1643 547.566C95.1643 544.1 91.4898 541.298 87.0103 541.298ZM441.822 384.143C438.829 384.143 436.517 385.931 436.517 388.242C436.517 390.521 438.829 392.31 441.822 392.31C444.836 392.31 447.148 390.521 447.148 388.242C447.148 385.931 444.65 384.143 441.822 384.143ZM475.759 338.907C472.931 338.907 470.784 340.553 470.784 342.721C470.784 344.906 472.931 346.552 475.759 346.552C478.587 346.552 480.754 344.906 480.754 342.721C480.754 340.553 478.587 338.907 475.759 338.907ZM394.756 350.24C391.267 350.24 388.274 352.408 388.274 355.225C388.274 358.027 391.102 360.195 394.756 360.195C398.41 360.195 401.238 358.027 401.238 355.225C401.238 352.408 398.244 350.24 394.756 350.24ZM147.721 390.015C143.056 390.015 139.237 392.943 139.237 396.52C139.237 400.082 143.056 403.01 147.721 403.01C152.387 403.01 156.206 400.082 156.206 396.52C156.371 392.943 152.552 390.015 147.721 390.015ZM529.823 377.907C527.16 377.907 525.178 379.569 525.178 381.468C525.178 383.51 527.346 385.061 529.823 385.061C532.486 385.061 534.488 383.383 534.488 381.468C534.488 379.569 532.321 377.907 529.823 377.907ZM312.246 395.998C308.262 395.998 305.083 398.435 305.083 401.49C305.083 404.545 308.262 406.967 312.246 406.967C316.23 406.967 319.388 404.545 319.388 401.49C319.388 398.435 316.23 395.998 312.246 395.998ZM263.508 357.774C256.861 357.774 251.535 361.841 251.535 366.938C251.535 372.035 256.861 376.134 263.508 376.134C270.155 376.134 275.481 372.035 275.481 366.938C275.481 361.841 270.155 357.774 263.508 357.774ZM156.371 346.298C152.221 346.298 148.898 348.847 148.898 352.028C148.898 355.225 152.221 357.774 156.371 357.774C160.541 357.774 163.864 355.225 163.864 352.028C163.864 348.847 160.541 346.298 156.371 346.298ZM101.646 377.907C101.646 381.341 97.9924 384.143 93.4922 384.143C89.0127 384.143 85.3382 381.341 85.3382 377.907C85.3382 374.456 89.0127 371.67 93.4922 371.67C98.1575 371.67 101.646 374.456 101.646 377.907Z" fill="#F14947"/>
<path d="M520.843 572.779C516.859 572.779 513.701 575.2 513.701 578.255C513.701 581.341 516.859 583.747 520.843 583.747C524.848 583.747 528.006 581.341 528.006 578.255C528.006 575.2 524.848 572.779 520.843 572.779ZM344.015 568.062C341.352 568.062 339.02 569.724 339.02 571.892C339.02 573.934 341.187 575.707 344.015 575.707C346.678 575.707 349.011 574.061 349.011 571.892C349.011 569.724 346.678 568.062 344.015 568.062ZM203.127 515.307C199.783 515.307 197.12 517.333 197.12 519.882C197.12 522.43 199.783 524.472 203.127 524.472C206.451 524.472 209.114 522.43 209.114 519.882C209.114 517.333 206.451 515.307 203.127 515.307ZM26.1135 485.108C21.4688 485.108 17.7944 487.894 17.7944 491.487C17.7944 495.032 21.4688 497.849 26.1135 497.849C30.7788 497.849 34.4326 495.032 34.4326 491.487C34.4326 487.894 30.6137 485.108 26.1135 485.108ZM26.1135 554.687C21.4688 554.687 17.7944 557.489 17.7944 561.05C17.7944 564.627 21.4688 567.429 26.1135 567.429C30.7788 567.429 34.4326 564.627 34.4326 561.05C34.2881 557.615 30.6137 554.687 26.1135 554.687ZM543.798 518.109C537.151 518.109 531.66 522.303 531.66 527.416C531.66 532.512 537.151 536.723 543.798 536.723C550.466 536.723 555.936 532.512 555.936 527.416C555.936 522.303 550.466 518.109 543.798 518.109ZM527.325 403.135C523.341 403.135 520.183 405.557 520.183 408.628C520.183 411.682 523.341 414.104 527.325 414.104C531.33 414.104 534.488 411.682 534.488 408.628C534.488 405.557 531.33 403.135 527.325 403.135ZM350.497 398.434C347.834 398.434 345.522 400.08 345.522 402.265C345.522 404.417 347.669 406.079 350.497 406.079C353.16 406.079 355.493 404.417 355.493 402.265C355.493 400.08 353.16 398.434 350.497 398.434ZM209.609 345.664C206.285 345.664 203.622 347.69 203.622 350.238C203.622 352.803 206.285 354.829 209.609 354.829C212.932 354.829 215.595 352.803 215.595 350.238C215.595 347.69 212.932 345.664 209.609 345.664ZM32.616 315.449C27.9507 315.449 24.2969 318.25 24.2969 321.827C24.2969 325.389 27.9507 328.19 32.616 328.19C37.2607 328.19 40.9352 325.389 40.9352 321.827C40.9352 318.25 37.0956 315.449 32.616 315.449ZM32.616 385.06C27.9507 385.06 24.2969 387.845 24.2969 391.423C24.2969 394.984 27.9507 397.801 32.616 397.801C37.2607 397.801 40.9352 394.984 40.9352 391.423C40.9352 387.845 37.0956 385.06 32.616 385.06ZM558.599 336.484C558.599 341.581 553.108 345.791 546.461 345.791C539.814 345.791 534.323 341.581 534.323 336.484C534.323 331.387 539.814 327.177 546.461 327.177C553.108 327.177 558.599 331.261 558.599 336.484Z" fill="#456EB8"/>
<path d="M574.741 561.826C570.757 561.826 567.599 564.247 567.599 567.318C567.599 570.357 570.757 572.779 574.741 572.779C578.725 572.779 581.904 570.357 581.904 567.318C581.904 564.374 578.725 561.826 574.741 561.826ZM113.288 527.416C110.955 527.416 109.139 528.809 109.139 530.597C109.139 532.386 110.955 533.779 113.288 533.779C115.621 533.779 117.437 532.386 117.437 530.597C117.437 528.809 115.621 527.416 113.288 527.416ZM96.4847 491.597C93.3263 491.597 90.6633 493.639 90.6633 496.061C90.6633 498.482 93.3263 500.508 96.4847 500.508C99.643 500.508 102.306 498.482 102.306 496.061C102.306 493.639 99.643 491.597 96.4847 491.597ZM480.754 552.899C475.923 552.899 471.939 555.953 471.939 559.673C471.939 563.345 475.923 566.416 480.754 566.416C485.584 566.416 489.568 563.345 489.568 559.673C489.568 555.953 485.749 552.899 480.754 552.899ZM435.174 581.974C429.683 581.974 425.183 585.393 425.183 589.619C425.183 593.814 429.683 597.264 435.174 597.264C440.665 597.264 445.145 593.814 445.145 589.619C445.145 585.393 440.665 581.974 435.174 581.974ZM312.245 543.734C305.082 543.734 299.095 548.198 299.095 553.785C299.095 559.404 304.917 563.867 312.245 563.867C319.388 563.867 325.374 559.404 325.374 553.785C325.374 548.198 319.553 543.734 312.245 543.734ZM581.223 392.182C577.239 392.182 574.081 394.62 574.081 397.659C574.081 400.714 577.239 403.135 581.223 403.135C585.228 403.135 588.386 400.714 588.386 397.659C588.386 394.731 585.228 392.182 581.223 392.182ZM119.77 357.772C117.437 357.772 115.621 359.165 115.621 360.954C115.621 362.742 117.437 364.135 119.77 364.135C122.103 364.135 123.94 362.742 123.94 360.954C123.94 359.165 122.103 357.772 119.77 357.772ZM102.967 321.97C99.8082 321.97 97.1452 323.996 97.1452 326.417C97.1452 328.839 99.8082 330.881 102.967 330.881C106.125 330.881 108.788 328.839 108.788 326.417C108.788 323.996 106.125 321.97 102.967 321.97ZM495.885 352.027C491.055 352.027 487.07 355.098 487.07 358.785C487.07 362.489 491.055 365.544 495.885 365.544C500.715 365.544 504.7 362.489 504.7 358.785C504.7 355.098 500.715 352.027 495.885 352.027ZM470.763 390.014C465.271 390.014 460.792 393.449 460.792 397.659C460.792 401.869 465.271 405.304 470.763 405.304C476.254 405.304 480.754 401.869 480.754 397.659C480.754 393.449 476.419 390.014 470.763 390.014ZM345.501 352.027C338.358 352.027 332.372 356.49 332.372 362.109C332.372 367.586 338.193 372.176 345.501 372.176C352.664 372.176 358.65 367.712 358.65 362.109C358.65 356.49 352.829 352.027 345.501 352.027ZM492.396 79.0275C489.403 95.4569 490.064 112.155 488.743 128.727C487.566 145.552 486.74 162.377 486.245 179.202C485.068 213.359 483.582 247.642 481.249 281.814C480.589 291.739 500.715 291.739 501.376 281.814C503.544 247.642 505.195 213.485 505.876 179.202C506.207 162.377 505.876 145.552 504.865 128.727C503.874 112.155 504.204 95.3302 500.715 79.0275C500.055 75.9727 493.057 75.8303 492.396 79.0275ZM426.69 88.0811C423.531 103.371 423.531 119.04 422.355 134.457C421.199 151.408 419.857 168.234 418.701 185.185C416.368 218.455 414.366 251.726 411.538 284.996C410.712 295.316 431.685 295.189 432.346 284.996C434.844 251.852 436.825 218.455 436.991 185.185C436.991 168.867 436.66 152.437 436 136.119C435.339 120.196 435.504 103.877 432.181 88.0811C431.85 85.8968 427.185 85.8968 426.69 88.0811ZM358.155 84.8838C356.318 92.1488 357.309 99.4138 357.309 106.805C357.474 114.957 356.813 123.251 356.318 131.418C355.327 146.708 354.646 161.997 353.325 177.303C350.662 208.769 345.336 240.757 345.336 272.254C345.336 280.643 363.646 283.207 365.298 274.28C370.789 243.052 369.963 210.288 368.951 178.822C368.456 163.01 368.291 147.072 367.3 131.275C366.804 123.631 366.123 115.986 365.958 108.341C365.793 100.443 366.639 92.5287 364.307 84.7572C363.316 82.7154 358.816 82.5888 358.155 84.8838ZM259.833 83.9975C259.833 92.1488 262.165 100.174 263.321 108.214C264.498 116.366 264.663 124.39 264.993 132.542C265.489 147.721 267.161 162.884 268.317 177.936C270.649 209.275 270.98 240.884 273.643 272.254C274.634 283.207 295.772 283.461 296.102 272.254C297.093 240.504 293.274 207.882 289.29 176.258C287.288 161.095 285.45 145.805 281.797 130.785C277.978 114.957 277.462 98.1476 271.971 82.7154C270.319 77.4922 259.833 78.521 259.833 83.9975ZM195.963 56.7102C192.805 73.282 194.787 90.3603 194.952 107.059C195.117 124.137 194.621 141.089 194.291 158.183C193.796 175.245 193.135 192.197 192.289 209.275C191.793 218.076 191.298 226.86 190.802 235.66C190.307 243.938 188.8 252.501 190.802 260.779C192.475 268.424 207.276 267.395 209.608 260.779C212.601 252.865 211.92 243.938 212.25 235.66C212.601 226.86 212.932 218.076 213.097 209.275C213.427 192.197 213.427 175.245 213.097 158.183C212.767 141.089 211.755 124.137 210.929 107.059C210.104 90.3603 210.434 72.9021 205.273 56.7102C203.952 53.5288 196.789 53.1489 195.963 56.7102ZM123.589 60.0341C121.607 96.4857 123.424 132.684 127.263 169.136C129.08 186.974 131.413 204.938 133.91 222.792C135.066 231.466 136.408 240.124 137.729 248.782C139.071 256.965 138.245 267.902 144.562 274.803C149.042 279.63 158.021 278.87 160.519 273.125C164.028 265.48 159.859 256.047 158.537 248.149C156.865 239.111 155.358 230.184 153.872 221.13C150.879 202.786 148.051 184.315 145.388 165.938C140.392 130.389 135.397 94.8237 128.915 59.5276C128.584 56.9793 123.754 57.739 123.589 60.0341ZM41.4092 89.4739C41.9253 85.2637 50.7398 83.6176 51.7307 88.4451C54.8891 104.004 55.7148 119.674 57.8823 135.359C60.0498 150.649 62.2173 165.828 64.0339 181.117C67.8735 212.71 74.3554 243.938 79.0207 275.547C72.1879 273.378 65.2106 271.226 58.3984 269.073C59.5544 268.424 60.5452 267.791 61.7219 267.015C69.6901 262.299 82.1791 266.382 79.5161 274.913C79.1859 275.942 78.8349 276.955 78.5046 277.984C75.8623 286.389 57.0566 287.148 55.2194 277.984C49.0677 247.136 46.4048 215.527 43.2464 184.425C41.7601 169.136 41.0789 153.957 40.7486 138.667C40.7486 122.222 39.5926 105.666 41.4092 89.4739Z" fill="#3BA27A"/>
<path d="M607.006 415.008C578.395 421.244 548.958 425.312 519.356 428.129C426.195 437.04 331.381 437.942 237.889 432.577C192.31 430.028 146.73 425.834 101.646 419.962C67.8737 415.641 33.6063 410.908 0.164673 404.545V398.293C39.0973 405.052 78.0094 411.937 117.788 416.78C209.278 427.86 302.254 432.45 394.92 430.551C465.457 429.031 538.307 425.707 606.841 411.304C606.841 412.57 607.006 413.726 607.006 415.008ZM607.853 470.184C566.587 476.562 524.662 481.137 482.756 484.334C390.585 491.346 297.279 491.219 205.108 483.954C160.024 480.503 115.291 475.28 70.8669 468.395C47.4165 464.834 23.6151 461.004 0.164673 456.429V450.177C28.7758 455.907 57.387 461.257 86.5143 465.594C259.007 490.839 435.174 489.81 607.853 467.002V470.184ZM607.172 432.07C532.155 450.7 451.317 454.641 373.121 456.429C280.476 458.455 187.479 453.739 95.9894 442.659C63.7244 438.702 31.9342 433.495 0.329817 428.002V434.365C26.7941 438.829 53.5681 442.532 80.0324 445.84C125.096 451.57 170.676 455.907 216.255 458.455C309.747 463.678 404.561 462.919 497.722 453.992C534.983 450.43 572.078 445.081 607.522 435.521C607.357 434.365 607.357 433.226 607.172 432.07ZM13.3143 519.883C10.6513 519.883 8.48379 521.545 8.48379 523.587C8.48379 525.629 10.6513 527.275 13.3143 527.275C15.9772 527.275 18.1241 525.629 18.1241 523.587C18.1241 521.545 15.9772 519.883 13.3143 519.883ZM108.127 567.43C104.804 567.43 102.141 569.472 102.141 572.02C102.141 574.569 104.804 576.61 108.127 576.61C111.451 576.61 114.114 574.569 114.114 572.02C114.114 569.472 111.451 567.43 108.127 567.43ZM172.183 541.298C168.673 541.298 165.845 543.467 165.845 546.142C165.845 548.832 168.673 550.985 172.183 550.985C175.671 550.985 178.499 548.832 178.499 546.142C178.499 543.467 175.671 541.298 172.183 541.298ZM284.955 534.936C282.808 534.936 281.136 536.202 281.136 537.864C281.136 539.526 282.808 540.792 284.955 540.792C287.123 540.792 288.795 539.526 288.795 537.864C288.795 536.202 287.123 534.936 284.955 534.936ZM263.507 576.737C258.512 576.737 254.362 579.792 254.362 583.749C254.362 587.563 258.346 590.761 263.507 590.761C268.503 590.761 272.652 587.706 272.652 583.749C272.652 579.792 268.503 576.737 263.507 576.737ZM44.5884 528.446C42.0906 528.446 40.0882 529.966 40.0882 531.865C40.0882 533.78 42.0906 535.315 44.5884 535.315C47.0862 535.315 49.0679 533.78 49.0679 531.865C49.0679 529.966 47.0862 528.446 44.5884 528.446ZM581.223 497.708C576.579 497.708 572.739 500.637 572.739 504.229C572.739 507.775 576.579 510.719 581.223 510.719C585.889 510.719 589.708 507.775 589.708 504.229C589.708 500.637 586.054 497.708 581.223 497.708ZM572.904 529.712C569.911 529.712 567.599 531.485 567.599 533.78C567.599 536.091 569.911 537.864 572.904 537.864C575.897 537.864 578.23 536.091 578.23 533.78C578.23 531.485 575.897 529.712 572.904 529.712ZM422.21 529.712C416.368 529.712 411.559 533.4 411.559 537.864C411.559 542.327 416.368 546.015 422.21 546.015C428.032 546.015 432.842 542.327 432.842 537.864C432.676 533.4 428.032 529.712 422.21 529.712ZM388.108 583.891C383.938 583.891 380.615 586.44 380.615 589.621C380.615 592.802 383.938 595.351 388.108 595.351C392.257 595.351 395.581 592.802 395.581 589.621C395.581 586.44 392.257 583.891 388.108 583.891ZM207.771 577.75C203.457 577.75 199.947 580.425 199.947 583.749C199.947 587.073 203.457 589.732 207.771 589.732C212.106 589.732 215.595 587.073 215.595 583.749C215.595 580.425 212.106 577.75 207.771 577.75ZM43.9278 501.159C38.6019 501.159 34.2669 504.467 34.2669 508.551C34.2669 512.618 38.6019 515.942 43.9278 515.942C49.2537 515.942 53.5681 512.618 53.5681 508.551C53.5681 504.467 49.2537 501.159 43.9278 501.159ZM19.7961 350.24C17.1332 350.24 14.9863 351.918 14.9863 353.944C14.9863 355.985 17.1332 357.647 19.7961 357.647C22.4591 357.647 24.6266 355.985 24.6266 353.944C24.6266 351.918 22.4591 350.24 19.7961 350.24ZM114.609 397.803C111.286 397.803 108.623 399.829 108.623 402.377C108.623 404.925 111.286 406.967 114.609 406.967C117.954 406.967 120.616 404.925 120.616 402.377C120.616 399.829 117.954 397.803 114.609 397.803ZM178.665 371.671C175.176 371.671 172.348 373.824 172.348 376.498C172.348 379.173 175.176 381.342 178.665 381.342C182.153 381.342 184.981 379.173 184.981 376.498C184.981 373.824 182.153 371.671 178.665 371.671ZM303.1 350.24C300.933 350.24 299.261 351.522 299.261 353.2C299.261 354.83 300.933 356.112 303.1 356.112C305.247 356.112 306.919 354.83 306.919 353.2C306.919 351.649 305.247 350.24 303.1 350.24ZM255.023 391.424C250.027 391.424 245.878 394.479 245.878 398.436C245.878 402.377 249.862 405.448 255.023 405.448C260.019 405.448 264.168 402.377 264.168 398.436C264.168 394.479 260.019 391.424 255.023 391.424ZM51.0703 358.787C48.5725 358.787 46.5907 360.322 46.5907 362.222C46.5907 364.137 48.5725 365.672 51.0703 365.672C53.5681 365.672 55.5704 364.137 55.5704 362.222C55.5704 360.322 53.5681 358.787 51.0703 358.787ZM588.056 308.818C583.391 308.818 579.572 311.762 579.572 315.324C579.572 318.901 583.391 321.829 588.056 321.829C592.701 321.829 596.54 318.901 596.54 315.324C596.54 311.762 592.701 308.818 588.056 308.818ZM579.572 360.196C576.579 360.196 574.246 361.968 574.246 364.263C574.246 366.574 576.579 368.347 579.572 368.347C582.565 368.347 584.898 366.574 584.898 364.263C584.733 361.968 582.4 360.196 579.572 360.196ZM436.516 352.029C430.674 352.029 425.864 355.748 425.864 360.196C425.864 364.659 430.674 368.347 436.516 368.347C442.337 368.347 447.147 364.659 447.147 360.196C446.982 355.606 442.337 352.029 436.516 352.029ZM398.409 390.015C394.26 390.015 390.936 392.564 390.936 395.745C390.936 398.942 394.26 401.491 398.409 401.491C402.579 401.491 405.902 398.942 405.902 395.745C405.902 392.564 402.579 390.015 398.409 390.015ZM207.771 384.143C203.457 384.143 199.947 386.834 199.947 390.158C199.947 393.45 203.457 396.125 207.771 396.125C212.106 396.125 215.595 393.45 215.595 390.158C215.595 386.834 212.106 384.143 207.771 384.143ZM60.05 338.907C60.05 342.991 55.7356 346.299 50.4097 346.299C45.0838 346.299 40.7694 342.991 40.7694 338.907C40.7694 334.824 45.0838 331.531 50.4097 331.531C55.7356 331.531 60.05 334.824 60.05 338.907Z" fill="#FAE0C9"/>
<path d="M559.28 34.6789C562.933 21.1619 549.123 11.0954 548.132 10.4622C547.286 13.0105 545.965 16.9675 543.632 21.5418C538.637 31.3551 533.992 34.5523 535.148 39.1265C535.809 41.6907 538.472 45.2519 548.132 48.6866C550.795 47.0405 557.277 42.4504 559.28 34.6789ZM505.216 57.2337C507.713 47.8002 498.053 40.6619 497.392 40.282C496.897 42.0705 495.885 44.8721 494.234 48.0535C490.745 54.9386 487.401 57.107 488.247 60.2884C488.743 62.077 490.58 64.6253 497.392 66.9203C499.229 65.9073 503.709 62.5835 505.216 57.2337ZM458.79 24.2167C462.464 10.7155 448.654 0.648942 447.642 0C446.817 2.54829 445.496 6.50526 443.163 11.0954C438.167 20.9086 433.502 24.09 434.679 28.6801C435.339 31.2284 438.002 34.8055 447.642 38.2402C450.305 36.5783 456.808 31.8774 458.79 24.2167ZM435.339 60.5417C438.332 49.5888 427.185 41.564 426.36 41.0417C425.699 43.0835 424.687 46.2808 422.706 49.9687C418.701 57.8668 414.882 60.4151 415.873 64.1188C416.368 66.1606 418.536 69.0887 426.36 71.7637C428.527 70.355 433.688 66.6671 435.339 60.5417ZM384.764 40.9151C393.083 37.4804 395.251 33.9033 395.911 31.3551C396.923 26.765 392.918 23.5836 388.603 13.7703C386.601 9.18018 385.445 5.23903 384.764 2.69074C383.938 3.32386 372.296 13.3904 375.289 26.9074C377.126 34.6789 382.617 39.3798 384.764 40.9151ZM367.465 63.09C370.128 52.8968 359.827 45.3786 359.146 44.8721C358.651 46.7872 357.495 49.7154 355.822 53.1501C352.003 60.5417 348.515 62.8367 349.506 66.2872C350.001 68.2024 352.003 70.8773 359.311 73.4256C360.983 72.3968 365.979 68.8355 367.465 63.09ZM322.216 34.6789C325.89 21.1619 312.08 11.0954 311.068 10.4622C310.243 13.0105 308.922 16.9675 306.589 21.5418C301.593 31.3551 296.949 34.5523 298.105 39.1265C298.765 41.6907 301.428 45.2519 311.068 48.6866C313.731 47.0405 320.234 42.4504 322.216 34.6789ZM274.489 56.3473C276.987 46.7872 267.326 39.5222 266.665 39.1265C266.17 40.9151 265.158 43.7325 263.507 47.0405C260.018 54.0522 256.674 56.2207 257.521 59.5287C258.016 61.4439 259.833 63.8655 266.665 66.2872C268.503 65.0051 272.982 61.6971 274.489 56.3473ZM245.362 36.8315C248.025 26.9074 237.889 19.5158 237.229 19.1201C236.712 21.0353 235.722 23.8368 233.884 27.2873C230.231 34.4257 226.742 36.8315 227.568 40.1554C228.063 42.0705 230.065 44.6188 237.043 47.1671C239.045 45.8851 243.876 42.4504 245.362 36.8315ZM211.941 29.1866C215.595 15.6854 201.785 5.6189 200.794 4.96996C199.947 7.51825 198.626 11.4752 196.294 16.0653C191.298 25.8786 186.653 29.0758 187.809 33.6501C188.47 36.1984 191.133 39.7755 200.794 43.2101C203.291 41.4374 209.773 36.8315 211.941 29.1866ZM174.329 62.3302C176.332 54.6854 168.673 49.0823 168.178 48.6866C167.682 50.0953 167.022 52.3903 165.701 54.9386C162.852 60.4151 160.21 62.2036 160.87 64.7519C161.2 66.2872 162.687 68.2024 168.178 70.1017C169.52 69.2154 173.173 66.5405 174.329 62.3302ZM134.922 37.8603C137.75 27.4139 127.098 19.5158 126.252 19.1201C125.591 21.1619 124.6 24.09 122.763 27.6672C118.944 35.312 115.29 37.7337 116.116 41.295C116.612 43.3368 118.614 46.0117 126.107 48.6866C128.254 47.4204 133.415 43.8433 134.922 37.8603ZM88.0004 54.4321C96.3196 50.9816 98.6522 47.4204 99.1477 44.8721C100.139 40.282 96.1544 37.1006 91.8194 27.2873C89.8377 22.6972 88.661 18.7402 88.0004 16.1919C87.1747 16.825 75.3669 26.9074 78.5253 40.4086C80.3625 48.1801 85.9981 52.8968 88.0004 54.4321ZM51.7514 59.6553C55.4052 46.1383 41.595 36.0718 40.5835 35.4386C39.7578 37.9869 38.4367 41.9439 36.104 46.534C31.1084 56.3473 26.4431 59.5287 27.6197 64.1188C28.2803 66.6671 30.9433 70.2284 40.5835 73.6788C43.0813 72.0169 49.749 67.3002 51.7514 59.6553Z" fill="#F9B53F"/>
<path d="M216.6 276.4H257.4C260.733 276.4 263.667 276.133 266.2 275.6C268.733 274.933 270.933 273.733 272.8 272C274.8 270.267 276.6 267.933 278.2 265C279.8 261.933 281.333 258.067 282.8 253.4H291.6L283.6 300H178.8V290.8C194.667 277.2 207.667 265.467 217.8 255.6C227.933 245.6 235.867 236.733 241.6 229C247.467 221.133 251.467 213.933 253.6 207.4C255.867 200.733 257 193.867 257 186.8C257 177.067 254.8 169.4 250.4 163.8C246 158.2 240 155.4 232.4 155.4C228.8 155.4 225.4 156.067 222.2 157.4C219.133 158.6 216.467 160.333 214.2 162.6C212.067 164.867 210.333 167.6 209 170.8C207.8 174 207.2 177.467 207.2 181.2C207.2 187.867 208.867 193.133 212.2 197C215.667 200.867 220.333 202.8 226.2 202.8C225.533 206.667 223.667 209.733 220.6 212C217.667 214.267 214.067 215.4 209.8 215.4C205.667 215.4 201.8 214.667 198.2 213.2C194.733 211.733 191.667 209.667 189 207C186.467 204.333 184.467 201.2 183 197.6C181.533 193.867 180.8 189.8 180.8 185.4C180.8 179.4 182.133 173.933 184.8 169C187.6 163.933 191.467 159.533 196.4 155.8C201.333 152.067 207.133 149.2 213.8 147.2C220.6 145.067 227.933 144 235.8 144C243.667 144 250.867 145.067 257.4 147.2C263.933 149.333 269.533 152.333 274.2 156.2C279 159.933 282.667 164.467 285.2 169.8C287.867 175 289.2 180.8 289.2 187.2C289.2 195.2 287.333 203 283.6 210.6C280 218.2 274.933 225.6 268.4 232.8C262 240 254.333 247.133 245.4 254.2C236.6 261.267 226.933 268.333 216.4 275.4L216.6 276.4Z" fill="black"/>
<path d="M209.6 275.4H250.4C253.733 275.4 256.667 275.133 259.2 274.6C261.733 273.933 263.933 272.733 265.8 271C267.8 269.267 269.6 266.933 271.2 264C272.8 260.933 274.333 257.067 275.8 252.4H284.6L276.6 299H171.8V289.8C187.667 276.2 200.667 264.467 210.8 254.6C220.933 244.6 228.867 235.733 234.6 228C240.467 220.133 244.467 212.933 246.6 206.4C248.867 199.733 250 192.867 250 185.8C250 176.067 247.8 168.4 243.4 162.8C239 157.2 233 154.4 225.4 154.4C221.8 154.4 218.4 155.067 215.2 156.4C212.133 157.6 209.467 159.333 207.2 161.6C205.067 163.867 203.333 166.6 202 169.8C200.8 173 200.2 176.467 200.2 180.2C200.2 186.867 201.867 192.133 205.2 196C208.667 199.867 213.333 201.8 219.2 201.8C218.533 205.667 216.667 208.733 213.6 211C210.667 213.267 207.067 214.4 202.8 214.4C198.667 214.4 194.8 213.667 191.2 212.2C187.733 210.733 184.667 208.667 182 206C179.467 203.333 177.467 200.2 176 196.6C174.533 192.867 173.8 188.8 173.8 184.4C173.8 178.4 175.133 172.933 177.8 168C180.6 162.933 184.467 158.533 189.4 154.8C194.333 151.067 200.133 148.2 206.8 146.2C213.6 144.067 220.933 143 228.8 143C236.667 143 243.867 144.067 250.4 146.2C256.933 148.333 262.533 151.333 267.2 155.2C272 158.933 275.667 163.467 278.2 168.8C280.867 174 282.2 179.8 282.2 186.2C282.2 194.2 280.333 202 276.6 209.6C273 217.2 267.933 224.6 261.4 231.8C255 239 247.333 246.133 238.4 253.2C229.6 260.267 219.933 267.333 209.4 274.4L209.6 275.4Z" fill="#3BA27A"/>
<path d="M209.6 275.4L206.658 275.988L207.141 278.4H209.6V275.4ZM259.2 274.6L259.818 277.536L259.891 277.52L259.963 277.501L259.2 274.6ZM265.8 271L263.835 268.733L263.796 268.767L263.759 268.802L265.8 271ZM271.2 264L273.834 265.437L273.847 265.412L273.86 265.388L271.2 264ZM275.8 252.4V249.4H273.598L272.938 251.501L275.8 252.4ZM284.6 252.4L287.557 252.908L288.159 249.4H284.6V252.4ZM276.6 299V302H279.129L279.557 299.508L276.6 299ZM171.8 299H168.8V302H171.8V299ZM171.8 289.8L169.848 287.522L168.8 288.42V289.8H171.8ZM210.8 254.6L212.893 256.749L212.9 256.742L212.907 256.735L210.8 254.6ZM234.6 228L232.195 226.207L232.19 226.213L234.6 228ZM246.6 206.4L243.76 205.434L243.754 205.452L243.748 205.469L246.6 206.4ZM215.2 156.4L216.293 159.194L216.324 159.182L216.354 159.169L215.2 156.4ZM207.2 161.6L205.079 159.479L205.047 159.511L205.015 159.544L207.2 161.6ZM202 169.8L199.231 168.646L199.21 168.696L199.191 168.747L202 169.8ZM205.2 196L202.928 197.959L202.947 197.981L202.966 198.003L205.2 196ZM219.2 201.8L222.156 202.31L222.762 198.8H219.2V201.8ZM213.6 211L211.817 208.587L211.791 208.607L211.766 208.626L213.6 211ZM191.2 212.2L190.031 214.963L190.05 214.971L190.068 214.978L191.2 212.2ZM182 206L179.825 208.066L179.851 208.094L179.879 208.121L182 206ZM176 196.6L173.208 197.697L173.215 197.714L173.222 197.732L176 196.6ZM177.8 168L175.174 166.549L175.168 166.561L175.161 166.573L177.8 168ZM206.8 146.2L207.662 149.073L207.68 149.068L207.698 149.062L206.8 146.2ZM250.4 146.2L251.331 143.348L251.331 143.348L250.4 146.2ZM267.2 155.2L265.286 157.51L265.322 157.54L265.358 157.568L267.2 155.2ZM278.2 168.8L275.49 170.087L275.51 170.128L275.531 170.169L278.2 168.8ZM276.6 209.6L273.907 208.277L273.898 208.296L273.889 208.316L276.6 209.6ZM261.4 231.8L259.178 229.784L259.168 229.795L259.158 229.807L261.4 231.8ZM238.4 253.2L236.539 250.847L236.53 250.854L236.522 250.861L238.4 253.2ZM209.4 274.4L207.729 271.909L206.065 273.024L206.458 274.988L209.4 274.4ZM209.6 278.4H250.4V272.4H209.6V278.4ZM250.4 278.4C253.885 278.4 257.033 278.122 259.818 277.536L258.582 271.664C256.3 272.145 253.582 272.4 250.4 272.4V278.4ZM259.963 277.501C262.96 276.713 265.603 275.277 267.841 273.198L263.759 268.802C262.264 270.189 260.507 271.154 258.437 271.699L259.963 277.501ZM267.765 273.267C270.096 271.247 272.105 268.605 273.834 265.437L268.566 262.563C267.095 265.261 265.504 267.287 263.835 268.733L267.765 273.267ZM273.86 265.388C275.567 262.115 277.162 258.071 278.662 253.299L272.938 251.501C271.504 256.062 270.033 259.751 268.54 262.612L273.86 265.388ZM275.8 255.4H284.6V249.4H275.8V255.4ZM281.643 251.892L273.643 298.492L279.557 299.508L287.557 252.908L281.643 251.892ZM276.6 296H171.8V302H276.6V296ZM174.8 299V289.8H168.8V299H174.8ZM173.752 292.078C189.647 278.454 202.698 266.676 212.893 256.749L208.707 252.451C198.635 262.258 185.686 273.946 169.848 287.522L173.752 292.078ZM212.907 256.735C223.104 246.673 231.153 237.687 237.01 229.787L232.19 226.213C226.581 233.779 218.763 242.527 208.693 252.465L212.907 256.735ZM237.005 229.793C242.99 221.768 247.184 214.276 249.452 207.331L243.748 205.469C241.749 211.591 237.943 218.499 232.195 226.207L237.005 229.793ZM249.44 207.366C251.813 200.387 253 193.194 253 185.8H247C247 192.539 245.92 199.08 243.76 205.434L249.44 207.366ZM253 185.8C253 175.638 250.703 167.239 245.759 160.947L241.041 164.653C244.897 169.561 247 176.495 247 185.8H253ZM245.759 160.947C240.748 154.568 233.849 151.4 225.4 151.4V157.4C232.151 157.4 237.252 159.832 241.041 164.653L245.759 160.947ZM225.4 151.4C221.419 151.4 217.626 152.139 214.046 153.631L216.354 159.169C219.174 157.994 222.181 157.4 225.4 157.4V151.4ZM214.107 153.606C210.666 154.953 207.646 156.911 205.079 159.479L209.321 163.721C211.287 161.755 213.601 160.247 216.293 159.194L214.107 153.606ZM205.015 159.544C202.608 162.102 200.687 165.15 199.231 168.646L204.769 170.954C205.979 168.05 207.525 165.631 209.385 163.656L205.015 159.544ZM199.191 168.747C197.854 172.313 197.2 176.14 197.2 180.2H203.2C203.2 176.793 203.746 173.687 204.809 170.853L199.191 168.747ZM197.2 180.2C197.2 187.362 198.997 193.399 202.928 197.959L207.472 194.041C204.736 190.868 203.2 186.372 203.2 180.2H197.2ZM202.966 198.003C207.079 202.59 212.604 204.8 219.2 204.8V198.8C214.063 198.8 210.254 197.143 207.434 193.997L202.966 198.003ZM216.244 201.29C215.704 204.42 214.242 206.795 211.817 208.587L215.383 213.413C219.091 210.672 221.363 206.914 222.156 202.31L216.244 201.29ZM211.766 208.626C209.435 210.427 206.508 211.4 202.8 211.4V217.4C207.626 217.4 211.898 216.106 215.434 213.374L211.766 208.626ZM202.8 211.4C199.03 211.4 195.55 210.733 192.332 209.422L190.068 214.978C194.05 216.6 198.303 217.4 202.8 217.4V211.4ZM192.369 209.437C189.259 208.121 186.515 206.273 184.121 203.879L179.879 208.121C182.818 211.061 186.208 213.345 190.031 214.963L192.369 209.437ZM184.175 203.934C181.914 201.553 180.112 198.742 178.778 195.468L173.222 197.732C174.821 201.658 177.02 205.113 179.825 208.066L184.175 203.934ZM178.792 195.503C177.476 192.152 176.8 188.461 176.8 184.4H170.8C170.8 189.139 171.591 193.582 173.208 197.697L178.792 195.503ZM176.8 184.4C176.8 178.862 178.026 173.891 180.439 169.427L175.161 166.573C172.241 171.975 170.8 177.938 170.8 184.4H176.8ZM180.426 169.451C183.009 164.776 186.588 160.69 191.21 157.192L187.59 152.408C182.345 156.377 178.191 161.09 175.174 166.549L180.426 169.451ZM191.21 157.192C195.825 153.7 201.295 150.984 207.662 149.073L205.938 143.327C198.972 145.416 192.841 148.434 187.59 152.408L191.21 157.192ZM207.698 149.062C214.179 147.029 221.207 146 228.8 146V140C220.66 140 213.021 141.104 205.902 143.338L207.698 149.062ZM228.8 146C236.395 146 243.276 147.03 249.469 149.052L251.331 143.348C244.457 141.104 236.938 140 228.8 140V146ZM249.469 149.052C255.691 151.084 260.946 153.914 265.286 157.51L269.114 152.89C264.12 148.752 258.176 145.583 251.331 143.348L249.469 149.052ZM265.358 157.568C269.8 161.023 273.164 165.19 275.49 170.087L280.91 167.513C278.169 161.743 274.2 156.844 269.042 152.832L265.358 157.568ZM275.531 170.169C277.96 174.906 279.2 180.23 279.2 186.2H285.2C285.2 179.37 283.773 173.094 280.869 167.431L275.531 170.169ZM279.2 186.2C279.2 193.715 277.451 201.064 273.907 208.277L279.293 210.923C283.216 202.936 285.2 194.685 285.2 186.2H279.2ZM273.889 208.316C270.433 215.611 265.544 222.769 259.178 229.784L263.622 233.816C270.323 226.431 275.567 218.789 279.311 210.884L273.889 208.316ZM259.158 229.807C252.893 236.855 245.359 243.87 236.539 250.847L240.261 255.553C249.308 248.397 257.107 241.145 263.642 233.793L259.158 229.807ZM236.522 250.861C227.796 257.868 218.199 264.884 207.729 271.909L211.071 276.891C221.667 269.783 231.404 262.666 240.278 255.539L236.522 250.861ZM206.458 274.988L206.658 275.988L212.542 274.812L212.342 273.812L206.458 274.988Z" fill="black"/>
<path d="M377 146C386.2 146 394.8 148.067 402.8 152.2C410.933 156.333 418 162 424 169.2C430 176.4 434.733 184.867 438.2 194.6C441.8 204.333 443.6 214.867 443.6 226.2C443.6 237 441.8 247.133 438.2 256.6C434.733 266.067 430 274.333 424 281.4C418 288.333 410.933 293.867 402.8 298C394.8 302 386.2 304 377 304C367.933 304 359.4 302 351.4 298C343.533 293.867 336.6 288.333 330.6 281.4C324.733 274.333 320.067 266.067 316.6 256.6C313.133 247.133 311.4 237 311.4 226.2C311.4 214.867 313.133 204.333 316.6 194.6C320.067 184.867 324.733 176.4 330.6 169.2C336.6 162 343.533 156.333 351.4 152.2C359.4 148.067 367.933 146 377 146ZM377 292.4C381.8 292.4 386.067 291.4 389.8 289.4C393.667 287.267 396.933 283.667 399.6 278.6C402.267 273.533 404.267 266.8 405.6 258.4C407.067 250 407.8 239.467 407.8 226.8C407.8 213.6 407.067 202.6 405.6 193.8C404.267 184.867 402.267 177.733 399.6 172.4C396.933 167.067 393.667 163.267 389.8 161C386.067 158.733 381.8 157.6 377 157.6C372.2 157.6 367.867 158.733 364 161C360.267 163.267 357.067 167.067 354.4 172.4C351.733 177.733 349.667 184.867 348.2 193.8C346.867 202.6 346.2 213.6 346.2 226.8C346.2 239.467 346.867 250 348.2 258.4C349.667 266.8 351.733 273.533 354.4 278.6C357.067 283.667 360.267 287.267 364 289.4C367.867 291.4 372.2 292.4 377 292.4Z" fill="black"/>
<path d="M369 146C378.2 146 386.8 148.067 394.8 152.2C402.933 156.333 410 162 416 169.2C422 176.4 426.733 184.867 430.2 194.6C433.8 204.333 435.6 214.867 435.6 226.2C435.6 237 433.8 247.133 430.2 256.6C426.733 266.067 422 274.333 416 281.4C410 288.333 402.933 293.867 394.8 298C386.8 302 378.2 304 369 304C359.933 304 351.4 302 343.4 298C335.533 293.867 328.6 288.333 322.6 281.4C316.733 274.333 312.067 266.067 308.6 256.6C305.133 247.133 303.4 237 303.4 226.2C303.4 214.867 305.133 204.333 308.6 194.6C312.067 184.867 316.733 176.4 322.6 169.2C328.6 162 335.533 156.333 343.4 152.2C351.4 148.067 359.933 146 369 146ZM369 292.4C373.8 292.4 378.067 291.4 381.8 289.4C385.667 287.267 388.933 283.667 391.6 278.6C394.267 273.533 396.267 266.8 397.6 258.4C399.067 250 399.8 239.467 399.8 226.8C399.8 213.6 399.067 202.6 397.6 193.8C396.267 184.867 394.267 177.733 391.6 172.4C388.933 167.067 385.667 163.267 381.8 161C378.067 158.733 373.8 157.6 369 157.6C364.2 157.6 359.867 158.733 356 161C352.267 163.267 349.067 167.067 346.4 172.4C343.733 177.733 341.667 184.867 340.2 193.8C338.867 202.6 338.2 213.6 338.2 226.8C338.2 239.467 338.867 250 340.2 258.4C341.667 266.8 343.733 273.533 346.4 278.6C349.067 283.667 352.267 287.267 356 289.4C359.867 291.4 364.2 292.4 369 292.4Z" fill="#F14947"/>
<path d="M394.8 152.2L393.423 154.865L393.432 154.87L393.441 154.874L394.8 152.2ZM416 169.2L418.305 167.279L416 169.2ZM430.2 194.6L427.374 195.607L427.38 195.624L427.386 195.641L430.2 194.6ZM430.2 256.6L427.396 255.534L427.389 255.551L427.383 255.568L430.2 256.6ZM416 281.4L418.269 283.363L418.278 283.352L418.287 283.342L416 281.4ZM394.8 298L396.142 300.683L396.15 300.679L396.159 300.674L394.8 298ZM343.4 298L342.005 300.656L342.031 300.67L342.058 300.683L343.4 298ZM322.6 281.4L320.292 283.316L320.311 283.34L320.331 283.363L322.6 281.4ZM308.6 256.6L311.417 255.568L311.417 255.568L308.6 256.6ZM308.6 194.6L311.426 195.607L311.426 195.607L308.6 194.6ZM322.6 169.2L320.295 167.279L320.285 167.292L320.274 167.305L322.6 169.2ZM343.4 152.2L342.023 149.535L342.014 149.539L342.005 149.544L343.4 152.2ZM381.8 289.4L383.217 292.044L383.233 292.036L383.249 292.027L381.8 289.4ZM391.6 278.6L394.255 279.997L394.255 279.997L391.6 278.6ZM397.6 258.4L394.645 257.884L394.641 257.907L394.637 257.93L397.6 258.4ZM397.6 193.8L394.633 194.243L394.637 194.268L394.641 194.293L397.6 193.8ZM381.8 161L380.243 163.564L380.263 163.576L380.283 163.588L381.8 161ZM356 161L354.483 158.412L354.463 158.424L354.443 158.436L356 161ZM346.4 172.4L349.083 173.742L349.083 173.742L346.4 172.4ZM340.2 193.8L337.24 193.314L337.237 193.332L337.234 193.351L340.2 193.8ZM340.2 258.4L337.237 258.87L337.241 258.893L337.245 258.916L340.2 258.4ZM346.4 278.6L349.055 277.203L349.055 277.203L346.4 278.6ZM356 289.4L354.512 292.005L354.566 292.036L354.622 292.065L356 289.4ZM369 149C377.732 149 385.858 150.957 393.423 154.865L396.177 149.535C387.742 145.177 378.668 143 369 143V149ZM393.441 154.874C401.201 158.818 407.949 164.225 413.695 171.121L418.305 167.279C412.051 159.775 404.666 153.848 396.159 149.526L393.441 154.874ZM413.695 171.121C419.447 178.023 424.014 186.172 427.374 195.607L433.026 193.593C429.453 183.561 424.553 174.777 418.305 167.279L413.695 171.121ZM427.386 195.641C430.852 205.012 432.6 215.189 432.6 226.2H438.6C438.6 214.544 436.748 203.655 433.014 193.559L427.386 195.641ZM432.6 226.2C432.6 236.66 430.858 246.43 427.396 255.534L433.004 257.666C436.742 247.837 438.6 237.34 438.6 226.2H432.6ZM427.383 255.568C424.027 264.732 419.465 272.684 413.713 279.458L418.287 283.342C424.535 275.983 429.439 267.401 433.017 257.632L427.383 255.568ZM413.731 279.437C407.984 286.078 401.226 291.369 393.441 295.326L396.159 300.674C404.641 296.364 412.016 290.589 418.269 283.363L413.731 279.437ZM393.458 295.317C385.887 299.102 377.748 301 369 301V307C378.652 307 387.713 304.898 396.142 300.683L393.458 295.317ZM369 301C360.392 301 352.319 299.105 344.742 295.317L342.058 300.683C350.481 304.895 359.474 307 369 307V301ZM344.795 295.344C337.271 291.391 330.631 286.096 324.869 279.437L320.331 283.363C326.569 290.571 333.796 296.343 342.005 300.656L344.795 295.344ZM324.908 279.484C319.281 272.705 314.777 264.745 311.417 255.568L305.783 257.632C309.356 267.389 314.186 275.961 320.292 283.316L324.908 279.484ZM311.417 255.568C308.08 246.455 306.4 236.673 306.4 226.2H300.4C300.4 237.327 302.187 247.812 305.783 257.632L311.417 255.568ZM306.4 226.2C306.4 215.177 308.085 204.987 311.426 195.607L305.774 193.593C302.182 203.68 300.4 214.557 300.4 226.2H306.4ZM311.426 195.607C314.791 186.16 319.298 178.001 324.926 171.095L320.274 167.305C314.168 174.799 309.343 183.574 305.774 193.593L311.426 195.607ZM324.905 171.121C330.667 164.206 337.296 158.796 344.795 154.856L342.005 149.544C333.771 153.871 326.533 159.794 320.295 167.279L324.905 171.121ZM344.777 154.865C352.348 150.953 360.409 149 369 149V143C359.458 143 350.452 145.18 342.023 149.535L344.777 154.865ZM369 295.4C374.228 295.4 378.992 294.307 383.217 292.044L380.383 286.756C377.141 288.493 373.372 289.4 369 289.4V295.4ZM383.249 292.027C387.761 289.537 391.395 285.431 394.255 279.997L388.945 277.203C386.472 281.903 383.572 284.996 380.351 286.773L383.249 292.027ZM394.255 279.997C397.129 274.536 399.201 267.452 400.563 258.87L394.637 257.93C393.333 266.148 391.404 272.53 388.945 277.203L394.255 279.997ZM400.555 258.916C402.062 250.285 402.8 239.565 402.8 226.8H396.8C396.8 239.368 396.071 249.715 394.645 257.884L400.555 258.916ZM402.8 226.8C402.8 213.505 402.063 202.327 400.559 193.307L394.641 194.293C396.071 202.873 396.8 213.695 396.8 226.8H402.8ZM400.567 193.357C399.209 184.255 397.144 176.78 394.283 171.058L388.917 173.742C391.389 178.686 393.325 185.478 394.633 194.243L400.567 193.357ZM394.283 171.058C391.441 165.373 387.826 161.055 383.317 158.412L380.283 163.588C383.508 165.479 386.426 168.76 388.917 173.742L394.283 171.058ZM383.357 158.436C379.109 155.856 374.293 154.6 369 154.6V160.6C373.307 160.6 377.025 161.61 380.243 163.564L383.357 158.436ZM369 154.6C363.706 154.6 358.842 155.856 354.483 158.412L357.517 163.588C360.891 161.61 364.694 160.6 369 160.6V154.6ZM354.443 158.436C350.081 161.084 346.547 165.398 343.717 171.058L349.083 173.742C351.586 168.735 354.453 165.449 357.557 163.564L354.443 158.436ZM343.717 171.058C340.865 176.763 338.733 184.22 337.24 193.314L343.16 194.286C344.601 185.513 346.602 178.704 349.083 173.742L343.717 171.058ZM337.234 193.351C335.87 202.352 335.2 213.514 335.2 226.8H341.2C341.2 213.686 341.863 202.848 343.166 194.249L337.234 193.351ZM335.2 226.8C335.2 239.556 335.87 250.259 337.237 258.87L343.163 257.93C341.863 249.741 341.2 239.377 341.2 226.8H335.2ZM337.245 258.916C338.741 267.488 340.881 274.555 343.745 279.997L349.055 277.203C346.586 272.512 344.592 266.112 343.155 257.884L337.245 258.916ZM343.745 279.997C346.592 285.406 350.143 289.509 354.512 292.005L357.488 286.795C354.39 285.025 351.542 281.928 349.055 277.203L343.745 279.997ZM354.622 292.065C358.957 294.307 363.77 295.4 369 295.4V289.4C364.63 289.4 360.777 288.493 357.378 286.735L354.622 292.065Z" fill="black"/>
</svg>
