<svg width="270" height="268" viewBox="0 0 270 268" fill="none" xmlns="http://www.w3.org/2000/svg">
<path d="M120.324 94.0213C130.105 99.7982 140.258 107.391 149.927 117.278C169.645 137.596 178.831 159.198 183.163 171.873C177.659 170.429 170.072 168.13 161.252 164.442C147.789 158.72 131.493 149.683 115.787 135.297C91.8482 113.484 80.251 89.639 74.9637 76.4302C83.8833 78.3021 101.301 82.796 120.324 94.0213Z" fill="#F9B53F"/>
<path d="M264.108 169.735C264.908 166.952 263.309 164.014 260.532 163.159L238.999 156.849C236.216 156.043 233.278 157.648 232.422 160.431C231.623 163.208 233.228 166.152 236.005 167.008L257.538 173.318C258.015 173.473 258.555 173.529 259.032 173.529C261.332 173.529 263.414 172.035 264.108 169.735ZM221.581 40.8205L231.678 14.409C232.695 11.6817 231.356 8.63207 228.629 7.61553C225.908 6.5494 222.858 7.93784 221.848 10.6651L211.744 37.0766C210.734 39.8039 212.067 42.8535 214.794 43.8701C215.432 44.0808 216.077 44.242 216.66 44.242C218.748 44.242 220.775 42.9589 221.581 40.8205ZM103.762 35.3163C106.222 33.7605 106.917 30.4443 105.367 28.0393L93.9866 10.3428C92.437 7.88206 89.1209 7.18784 86.7159 8.74364C84.2613 10.2932 83.5671 13.6032 85.1167 16.0082L96.497 33.7109C97.5073 35.2605 99.2181 36.1159 100.929 36.1159C101.89 36.1654 102.85 35.8989 103.762 35.3163ZM135.659 150.749C134.642 150.749 133.632 150.483 132.721 149.844C130.316 148.239 129.677 144.923 131.276 142.518C135.287 136.53 143.834 125.943 155.642 122.522C169.645 118.511 182.736 122.305 195.399 125.943C198.814 126.904 202.025 127.865 205.279 128.615C212.389 130.326 219.87 131.664 226.013 129.687C232.695 127.549 238.41 121.877 243.108 116.584C245.036 114.396 248.402 114.235 250.54 116.156C252.728 118.084 252.889 121.449 250.968 123.588C245.302 129.954 238.304 136.853 229.218 139.735C220.614 142.462 211.428 140.913 202.825 138.83C199.354 137.974 195.876 137.008 192.511 135.991C180.758 132.625 169.694 129.414 158.58 132.569C152.277 134.392 145.545 140.113 140.041 148.289C139.024 149.894 137.369 150.749 135.659 150.749Z" fill="#F14947"/>
<path d="M212.122 196.841C214.955 196.202 216.771 193.363 216.126 190.531L213.188 177.539C212.55 174.706 209.717 172.94 206.885 173.528C204.052 174.173 202.236 177.006 202.874 179.838L205.819 192.83C206.352 195.291 208.54 196.946 210.945 196.946C211.317 197.002 211.744 196.946 212.122 196.841ZM268.757 103.381C270.629 101.131 270.363 97.8209 268.119 95.949C264.536 92.8994 258.499 89.0502 250.112 87.7671C240.548 86.2671 232.744 88.9944 228.951 90.7609C226.335 91.9882 225.158 95.1432 226.385 97.7651C227.618 100.387 230.767 101.559 233.389 100.331C236.11 99.0482 241.67 97.1205 248.507 98.1928C254.439 99.104 258.765 101.881 261.332 104.075C262.292 104.931 263.52 105.302 264.697 105.302C266.247 105.302 267.741 104.664 268.757 103.381ZM115.786 140.59C114.181 140.59 112.631 139.896 111.615 138.563C109.855 136.264 110.282 132.947 112.576 131.181C123.051 123.055 129.677 114.073 132.132 104.447C135.07 93.0048 131.921 82.8456 128.555 72.0975C124.923 60.3887 120.751 47.1303 124.923 31.4669C127.433 21.8903 132.559 13.0204 140.097 5.10498C142.124 3.01611 145.44 2.91074 147.522 4.94382C149.605 6.9769 149.71 10.2931 147.684 12.3757C141.38 19.008 137.103 26.3346 135.07 34.1384C131.704 46.8637 135.07 57.6118 138.597 68.9425C142.235 80.6575 146.029 92.7382 142.34 107.069C139.241 119.044 131.388 129.954 118.991 139.524C118.03 140.274 116.908 140.59 115.786 140.59Z" fill="#446DB7"/>
<path d="M80.0898 61.1386C80.7344 58.306 78.9679 55.4733 76.1352 54.8287L59.6784 51.0848C56.8457 50.4464 54.0192 52.2067 53.3746 55.0456C52.7362 57.8783 54.4965 60.711 57.3292 61.3556L73.786 65.0932C74.1579 65.2048 74.5856 65.2048 74.9637 65.2048C77.3687 65.2048 79.5567 63.5436 80.0898 61.1386ZM115.786 135.352C108.894 129.098 103.067 122.683 98.0962 116.422C93.9309 111.129 90.3482 105.947 87.3605 101.081C81.4286 91.3993 77.474 82.7401 74.9637 76.5355L47.765 145.673L40.9282 163.047L0 267.31L17.5725 258.168L32.5913 250.364L108.305 210.905L124.867 202.295L183.163 171.923C169.161 168.235 141.807 159.036 115.786 135.352ZM173.649 44.2418C171.994 44.2418 170.339 43.4422 169.322 41.9421C167.667 39.5371 168.256 36.2768 170.655 34.6218C172.905 33.0722 178.298 28.6341 179.903 20.8241C181.13 14.8365 179.475 9.86532 178.353 7.40455C177.176 4.73303 178.353 1.62762 181.025 0.456118C183.696 -0.721583 186.796 0.456118 187.967 3.12764C189.572 6.71032 192.033 14.0864 190.211 22.9626C187.862 34.5102 179.953 41.0372 176.643 43.3368C175.731 43.9194 174.665 44.2418 173.649 44.2418Z" fill="#3BA27A"/>
<path d="M115.786 195.558C110.549 195.558 106.272 199.779 106.272 205.072C106.272 207.266 107.022 209.3 108.249 210.905L124.811 202.295C123.64 198.39 120.008 195.558 115.786 195.558ZM47.765 145.673L40.9282 163.047C42.3724 163.958 44.0274 164.442 45.8435 164.442C51.0812 164.442 55.3519 160.214 55.3519 154.921C55.3519 150.377 52.0915 146.528 47.765 145.673ZM143.89 165.564C138.652 165.564 134.376 169.84 134.376 175.078C134.376 180.322 138.597 184.599 143.89 184.599C149.128 184.599 153.399 180.372 153.399 175.078C153.399 169.84 149.177 165.564 143.89 165.564ZM66.7322 186.093C61.4945 186.093 57.2238 190.32 57.2238 195.613C57.2238 200.851 61.445 205.128 66.7322 205.128C72.0257 205.128 76.2468 200.907 76.2468 195.613C76.2468 190.32 71.9699 186.093 66.7322 186.093ZM23.0767 240.955C17.8453 240.955 13.5684 245.176 13.5684 250.469C13.5684 253.68 15.118 256.457 17.523 258.224L32.5913 250.364C32.5355 245.12 28.3144 240.955 23.0767 240.955ZM87.3605 101.026C84.2613 102.575 82.1229 105.786 82.1229 109.53C82.1229 114.767 86.344 119.044 91.6313 119.044C94.1416 119.044 96.497 118.028 98.152 116.422C93.9309 111.129 90.3482 105.947 87.3605 101.026ZM244.342 58.8949C237.232 56.1118 222.753 52.2068 205.924 56.8061C184.285 62.7442 172.955 78.7299 169.105 85.3622C167.611 87.8725 168.467 91.0833 170.977 92.5771C171.833 93.0606 172.744 93.3272 173.649 93.3272C175.465 93.3272 177.231 92.3664 178.192 90.7052C181.397 85.201 190.8 71.9426 208.701 67.0211C222.591 63.1718 234.616 66.488 240.493 68.7318C243.22 69.8042 246.263 68.4095 247.329 65.738C248.402 63.0665 247.063 59.9611 244.342 58.8949Z" fill="#F9B53F"/>
<path d="M211.533 192.936C211.905 192.831 212.122 192.508 212.011 192.136L208.757 178.233C208.645 177.862 208.329 177.645 207.951 177.756C207.579 177.861 207.368 178.184 207.473 178.556L210.734 192.459C210.783 192.775 211.05 192.992 211.372 192.992C211.428 192.936 211.478 192.936 211.533 192.936ZM101.412 31.7834C101.728 31.5726 101.84 31.2007 101.623 30.8784L90.0816 12.5373C89.8709 12.215 89.4928 12.1654 89.1766 12.3265C88.8543 12.5373 88.7489 12.9092 88.9597 13.2315L100.501 31.5726C100.607 31.7834 100.823 31.8949 101.034 31.8949C101.195 31.8392 101.301 31.8392 101.412 31.7834ZM172.954 87.6621C176.32 82.1517 186.151 68.7321 204.535 62.8498C222.325 57.0791 237.821 61.8333 243.647 64.0833C243.964 64.1887 244.342 64.0275 244.503 63.7052C244.658 63.3829 244.447 62.9552 244.125 62.8498C236.755 59.9614 221.686 55.9014 204.157 61.5668C185.407 67.6102 175.304 81.3521 171.833 86.9617C171.622 87.284 171.727 87.6621 172.05 87.8729C172.155 87.9286 172.26 87.9782 172.366 87.9782C172.583 87.9782 172.793 87.8729 172.954 87.6621ZM120.163 139.202C120.379 138.935 120.379 138.508 120.113 138.297C110.171 129.687 101.251 119.9 93.6643 109.208C88.0547 101.348 83.1394 92.8998 79.0236 84.129C78.8625 83.8129 78.4906 83.6517 78.1682 83.8129C77.8459 83.9679 77.6848 84.346 77.8459 84.6683C82.0175 93.4886 86.9328 101.987 92.592 109.958C100.235 120.755 109.21 130.648 119.258 139.258C119.363 139.363 119.524 139.419 119.685 139.419C119.846 139.419 120.057 139.363 120.163 139.202ZM136.675 181.283C136.997 181.066 137.047 180.638 136.836 180.372C134.004 176.417 134.803 170.857 138.652 168.025C140.524 166.63 142.979 166.041 145.384 166.469C147.845 166.896 149.977 168.291 151.372 170.374C151.582 170.696 151.954 170.752 152.277 170.535C152.599 170.324 152.648 169.946 152.438 169.624C150.832 167.219 148.427 165.669 145.601 165.186C142.874 164.708 140.041 165.347 137.853 166.952C133.471 170.213 132.51 176.578 135.764 181.122C135.876 181.283 136.086 181.388 136.303 181.388C136.409 181.388 136.57 181.333 136.675 181.283ZM14.3679 254.214C14.6902 254.108 14.9072 253.73 14.7956 253.358C13.5187 249.397 15.0125 245.071 18.4341 242.933C21.5333 241.005 25.5932 241.222 28.5313 243.466C28.7978 243.676 29.2255 243.627 29.4425 243.36C29.6532 243.094 29.5974 242.666 29.3309 242.449C25.9156 239.883 21.2668 239.616 17.7398 241.86C13.7853 244.321 12.0745 249.242 13.5683 253.836C13.6799 254.108 13.9464 254.319 14.2129 254.319C14.2129 254.214 14.2625 254.214 14.3679 254.214ZM66.7322 205.717C66.3603 205.717 66.0937 205.395 66.0937 205.073C66.0937 204.701 66.416 204.434 66.7322 204.434C71.5979 204.434 75.5525 200.48 75.5525 195.614C75.5525 190.748 71.5979 186.787 66.7322 186.787C66.3603 186.787 66.0937 186.471 66.0937 186.149C66.0937 185.826 66.416 185.504 66.7322 185.504C72.3479 185.504 76.8852 190.054 76.8852 195.663C76.8852 201.174 72.3479 205.717 66.7322 205.717Z" fill="#3A5471"/>
</svg>
