<svg width="290" height="287" viewBox="0 0 290 287" fill="none" xmlns="http://www.w3.org/2000/svg">
<path d="M160.696 100.948C150.195 107.144 139.3 115.299 128.912 125.92C107.75 147.731 97.8769 170.926 93.2313 184.529C99.1403 182.978 107.288 180.511 116.753 176.554C131.212 170.411 148.705 160.706 165.569 145.265C191.27 121.843 203.723 96.2418 209.398 82.0576C199.82 84.0696 181.117 88.889 160.696 100.948Z" fill="#F9B53F"/>
<path d="M6.32166 182.236C5.45938 179.249 7.18394 176.094 10.1652 175.171L33.2863 168.4C36.2675 167.538 39.4225 169.262 40.3383 172.243C41.2005 175.231 39.4827 178.386 36.4948 179.309L13.3803 186.08C12.8656 186.254 12.2908 186.314 11.7694 186.314C9.30287 186.314 7.0703 184.703 6.32166 182.236ZM51.9891 43.8306L41.1471 15.4689C40.0575 12.5412 41.488 9.26586 44.4157 8.17631C47.3368 7.03329 50.6121 8.5239 51.7016 11.4516L62.5436 39.8133C63.6332 42.7343 62.196 46.0097 59.275 47.0992C58.5865 47.3265 57.898 47.5003 57.263 47.5003C55.0237 47.5003 52.8446 46.1233 51.9891 43.8306ZM178.477 37.9149C175.843 36.2505 175.095 32.6878 176.759 30.1076L188.978 11.104C190.642 8.46374 194.198 7.72177 196.778 9.38617C199.419 11.0506 200.161 14.6066 198.503 17.1935L186.284 36.1904C185.195 37.8548 183.356 38.7772 181.518 38.7772C180.489 38.8307 179.453 38.5433 178.477 37.9149ZM144.233 161.856C145.322 161.856 146.412 161.568 147.388 160.88C149.968 159.155 150.657 155.599 148.939 153.013C144.634 146.582 135.456 135.219 122.776 131.542C107.75 127.238 93.6926 131.315 80.0967 135.219C76.427 136.255 72.9846 137.284 69.482 138.086C61.8551 139.925 53.8206 141.362 47.2231 139.236C40.0575 136.943 33.9146 130.854 28.8679 125.172C26.8025 122.819 23.1862 122.646 20.8935 124.711C18.5406 126.783 18.3668 130.399 20.4323 132.692C26.515 139.524 34.0282 146.93 43.7807 150.031C53.0184 152.959 62.8845 151.295 72.1223 149.055C75.8521 148.133 79.582 147.104 83.1915 146.014C95.8116 142.391 107.69 138.949 119.621 142.338C126.392 144.289 133.618 150.432 139.527 159.216C140.617 160.933 142.395 161.856 144.233 161.856Z" fill="#3BA27A"/>
<path d="M62.1427 211.34C59.1013 210.651 57.1495 207.61 57.838 204.569L60.993 190.618C61.6815 187.57 64.7229 185.679 67.7642 186.314C70.8056 187.002 72.7508 190.044 72.0623 193.085L68.9073 207.035C68.3391 209.675 65.9862 211.454 63.3994 211.454C62.9983 211.514 62.5438 211.454 62.1427 211.34ZM1.33529 110.995C-0.676693 108.582 -0.389267 105.025 2.02378 103.014C5.86727 99.7449 12.3444 95.6073 21.3549 94.2303C31.622 92.6261 39.9975 95.5538 44.0683 97.4455C46.8824 98.769 48.1457 102.151 46.8222 104.965C45.5054 107.779 42.1164 109.043 39.309 107.719C36.3813 106.342 30.4188 104.277 23.0728 105.427C16.7093 106.402 12.057 109.384 9.30302 111.743C8.27363 112.659 6.95682 113.06 5.69348 113.06C4.02908 113.06 2.42484 112.372 1.33529 110.995ZM165.569 150.947C167.294 150.947 168.958 150.205 170.048 148.768C171.94 146.301 171.478 142.739 169.012 140.847C157.769 132.117 150.657 122.472 148.016 112.144C144.861 99.8585 148.25 88.9497 151.86 77.4125C155.764 64.8393 160.235 50.6016 155.764 33.7838C153.063 23.5033 147.562 13.9781 139.467 5.48235C137.288 3.24309 133.732 3.12946 131.499 5.30855C129.26 7.49433 129.147 11.0504 131.326 13.2897C138.097 20.4085 142.682 28.2693 144.861 36.6514C148.478 50.3142 144.861 61.8514 141.078 74.0235C137.174 86.5968 133.104 99.5711 137.061 114.952C140.39 127.812 148.819 139.523 162.127 149.797C163.163 150.606 164.366 150.947 165.569 150.947Z" fill="#446DB7"/>
<path d="M203.89 65.6415C203.202 62.6001 205.1 59.5587 208.135 58.8703L225.808 54.853C228.85 54.1645 231.885 56.0561 232.58 59.0975C233.261 62.1389 231.37 65.187 228.328 65.8754L210.662 69.8927C210.261 70.0064 209.799 70.0064 209.398 70.0064C206.818 70.0064 204.465 68.2283 203.89 65.6415ZM165.569 145.325C172.969 138.608 179.225 131.716 184.559 124.998C189.038 119.317 192.881 113.749 196.09 108.528C202.46 98.134 206.705 88.8361 209.398 82.1785L238.602 156.401L245.942 175.057L289.885 287L271.015 277.187L254.892 268.805L173.604 226.44L155.817 217.195L93.2313 184.589C108.264 180.625 137.635 170.753 165.569 145.325ZM103.445 47.5002C105.223 47.5002 107.001 46.6446 108.091 45.0337C109.869 42.4535 109.24 38.9509 106.653 37.1729C104.247 35.5085 98.4518 30.7426 96.7339 22.3604C95.4104 15.9301 97.1884 10.5893 98.3983 7.94897C99.6549 5.08139 98.3983 1.75259 95.5307 0.489253C92.6564 -0.774086 89.3343 0.489253 88.071 3.35683C86.3464 7.20701 83.7128 15.1279 85.6579 24.6531C88.1846 37.0526 96.6737 44.0578 100.23 46.5243C101.206 47.1593 102.355 47.5002 103.445 47.5002Z" fill="#F14947"/>
<path d="M165.569 209.963C171.191 209.963 175.783 214.495 175.783 220.184C175.783 222.537 174.981 224.716 173.657 226.44L155.877 217.196C157.14 213.005 161.037 209.963 165.569 209.963ZM238.602 156.402L245.942 175.058C244.391 176.034 242.613 176.555 240.661 176.555C235.04 176.555 230.454 172.016 230.454 166.335C230.454 161.455 233.95 157.317 238.602 156.402ZM135.396 177.758C141.018 177.758 145.61 182.35 145.61 187.979C145.61 193.6 141.078 198.192 135.396 198.192C129.775 198.192 125.189 193.66 125.189 187.979C125.189 182.35 129.721 177.758 135.396 177.758ZM218.235 199.803C223.857 199.803 228.442 204.335 228.442 210.017C228.442 215.645 223.91 220.237 218.235 220.237C212.553 220.237 208.021 215.705 208.021 210.017C208.021 204.335 212.614 199.803 218.235 199.803ZM265.106 258.699C270.727 258.699 275.313 263.237 275.313 268.919C275.313 272.362 273.648 275.349 271.068 277.241L254.892 268.806C254.952 263.177 259.477 258.699 265.106 258.699ZM196.09 108.468C199.419 110.133 201.711 113.575 201.711 117.592C201.711 123.221 197.179 127.813 191.504 127.813C188.804 127.813 186.284 126.723 184.506 124.999C189.038 119.317 192.881 113.749 196.09 108.468ZM27.551 63.2354C35.1778 60.2475 50.7256 56.0564 68.7934 60.9961C92.0281 67.3663 104.194 84.5317 108.318 91.6505C109.929 94.3443 109.006 97.7934 106.313 99.3977C105.397 99.9124 104.421 100.2 103.445 100.2C101.493 100.2 99.6015 99.1704 98.5654 97.3857C95.1297 91.4767 85.0296 77.2391 65.8122 71.9585C50.8994 67.8275 37.9919 71.3836 31.6819 73.7967C28.7542 74.9464 25.4855 73.4491 24.3358 70.5815C23.1861 67.7072 24.6233 64.3784 27.551 63.2354Z" fill="#F9B53F"/>
<path d="M62.7708 207.149C62.3698 207.036 62.1425 206.688 62.2561 206.287L65.7521 191.361C65.8724 190.96 66.2133 190.733 66.6143 190.846C67.0154 190.96 67.2427 191.307 67.129 191.708L63.6331 206.635C63.573 206.975 63.2855 207.209 62.9446 207.209C62.8845 207.149 62.831 207.149 62.7708 207.149ZM181.003 34.1252C180.662 33.8979 180.542 33.4969 180.776 33.1493L193.162 13.4639C193.396 13.1163 193.797 13.0629 194.138 13.23C194.486 13.4639 194.599 13.865 194.372 14.2059L181.979 33.8979C181.866 34.1252 181.632 34.2388 181.404 34.2388C181.231 34.1854 181.117 34.1854 181.003 34.1252ZM104.187 94.1171C100.577 88.2015 90.0229 73.7967 70.284 67.48C51.1802 61.2837 34.5496 66.3905 28.293 68.8035C27.9521 68.9172 27.5511 68.7434 27.3773 68.3958C27.2035 68.0549 27.4307 67.5937 27.7783 67.48C35.6926 64.3785 51.8687 60.0203 70.6851 66.1031C90.825 72.5869 101.667 87.3459 105.397 93.3685C105.624 93.7161 105.51 94.1171 105.163 94.3444C105.049 94.4046 104.936 94.458 104.822 94.458C104.595 94.458 104.361 94.3444 104.187 94.1171ZM160.87 149.457C160.636 149.169 160.636 148.708 160.924 148.481C171.599 139.236 181.177 128.735 189.319 117.252C195.348 108.816 200.622 99.7453 205.04 90.3271C205.214 89.9862 205.615 89.8124 205.956 89.9862C206.304 90.1533 206.477 90.5544 206.304 90.902C201.825 100.374 196.551 109.504 190.468 118.054C182.267 129.651 172.628 140.272 161.846 149.517C161.726 149.631 161.559 149.684 161.385 149.684C161.211 149.684 160.984 149.631 160.87 149.457ZM143.143 194.636C142.796 194.402 142.742 193.948 142.97 193.66C146.011 189.409 145.149 183.44 141.018 180.399C139.012 178.908 136.372 178.273 133.792 178.734C131.152 179.195 128.859 180.686 127.368 182.925C127.134 183.266 126.733 183.326 126.392 183.099C126.045 182.865 125.991 182.464 126.219 182.123C127.936 179.536 130.523 177.872 133.565 177.357C136.486 176.836 139.527 177.531 141.88 179.249C146.586 182.751 147.615 189.583 144.119 194.462C143.999 194.636 143.772 194.75 143.544 194.75C143.431 194.75 143.257 194.69 143.143 194.636ZM274.45 272.937C274.11 272.823 273.882 272.422 273.996 272.021C275.366 267.77 273.762 263.117 270.092 260.824C266.763 258.759 262.405 258.986 259.25 261.399C258.963 261.627 258.502 261.573 258.274 261.286C258.047 260.998 258.101 260.537 258.388 260.31C262.058 257.549 267.051 257.262 270.841 259.675C275.085 262.315 276.917 267.596 275.313 272.535C275.199 272.823 274.912 273.05 274.624 273.05C274.624 272.937 274.571 272.937 274.45 272.937ZM218.235 220.872C218.636 220.872 218.924 220.525 218.924 220.184C218.924 219.776 218.576 219.489 218.235 219.489C213.015 219.489 208.77 215.244 208.77 210.017C208.77 204.796 213.015 200.545 218.235 200.545C218.636 200.545 218.924 200.204 218.924 199.857C218.924 199.516 218.576 199.168 218.235 199.168C212.213 199.168 207.333 204.048 207.333 210.077C207.333 215.993 212.213 220.872 218.235 220.872Z" fill="#3A5471"/>
</svg>
