<svg width="692" height="382" viewBox="0 0 692 382" fill="none" xmlns="http://www.w3.org/2000/svg">
<path d="M393.929 142.819C395.637 131.518 396.575 121.069 397.053 111.671C382.916 117.017 367.84 122.236 351.868 127.193C337.643 131.612 323.88 135.446 310.689 138.779C317.662 144.574 325.005 151.171 332.591 158.713C336.506 162.628 340.502 166.755 344.467 171.145C357.205 185.156 367.411 198.765 375.496 210.944C381.05 197.005 386.617 180.076 390.768 160.424C392.035 154.364 393.102 148.48 393.929 142.819Z" fill="#3BA27A"/>
<path d="M251.796 182.423C253.632 177.31 255.49 172.247 257.338 167.129L260.191 159.27C261.525 155.579 262.863 151.93 264.197 148.24C250.915 150.574 236.851 152.669 222.105 154.422C206.429 156.235 191.397 157.442 177.131 158.222C181.564 167.013 186.751 176.509 192.923 186.402L196.878 192.625C197.9 194.133 198.921 195.671 199.943 197.208C205.942 206.081 212.01 214.149 217.91 221.471C219.859 223.842 221.73 226.101 223.64 228.313C226.42 231.56 229.165 234.661 231.793 237.565C233.849 231.887 235.942 226.193 237.98 220.508C238.854 218.103 239.729 215.698 240.592 213.268C244.32 203.004 248.069 192.687 251.796 182.423Z" fill="#446DB7"/>
<path d="M-2.47439 145.766L-70.4721 217.791C-72.5124 202.588 -75.7051 185.453 -80.6674 166.95C-85.2146 149.945 -90.5351 134.746 -95.8811 121.444C-83.654 125.486 -70.7414 129.414 -57.2452 133.1C-38.0868 138.303 -19.7869 142.467 -2.47439 145.766ZM469.196 79.6775C457.399 85.6551 445.898 91.1367 434.752 96.125C448.545 103.628 464.416 113.723 480.798 127.19C492.607 136.887 502.545 146.578 510.819 155.571C512.816 141.904 514.33 126.256 514.569 108.963C514.836 89.2445 513.403 71.5649 511.34 56.4454C498.296 64.2185 484.231 72.0477 469.196 79.6775Z" fill="#F14947"/>
<path d="M-88.947 141.737C-89.4803 141.563 -89.7546 141.012 -89.5785 140.48L-84.7515 124.903C-84.5877 124.377 -84.0382 124.09 -83.5049 124.264C-82.9716 124.438 -82.6973 124.989 -82.8611 125.515L-87.7004 141.098C-87.8201 141.458 -88.0856 141.722 -88.408 141.791C-88.5964 141.831 -88.7643 141.817 -88.947 141.737ZM-23.615 165.896C-24.1443 165.765 -24.4609 165.217 -24.2848 164.686L-18.1709 142.528C-18.0371 142 -17.4985 141.689 -16.9706 141.85C-16.4536 141.987 -16.1247 142.529 -16.3009 143.061L-22.4092 165.231C-22.5044 165.581 -22.8122 165.848 -23.1591 165.929C-23.2807 165.953 -23.4431 165.952 -23.615 165.896ZM-81.0643 164.697C-81.5936 164.565 -81.9102 164.018 -81.771 163.503L-72.9608 128.26C-72.827 127.733 -72.2815 127.404 -71.7645 127.541C-71.2475 127.678 -70.9185 128.22 -71.0523 128.747L-79.8789 163.953C-79.9577 164.339 -80.2655 164.607 -80.6302 164.68C-80.7763 164.716 -80.9388 164.715 -81.0643 164.697ZM-75.629 190.231C-76.146 190.094 -76.4627 189.547 -76.2988 189.021L-60.6295 132.139C-60.5026 131.629 -59.9571 131.3 -59.4238 131.474C-58.9068 131.611 -58.5902 132.158 -58.754 132.684L-74.411 189.561C-74.5061 189.91 -74.814 190.178 -75.1609 190.258C-75.2825 190.283 -75.4503 190.269 -75.629 190.231ZM-52.9355 199.751C-53.4305 199.532 -53.6802 198.969 -53.4577 198.476L-29.5335 139.903C-29.3165 139.397 -28.7508 139.147 -28.2504 139.379C-27.7555 139.599 -27.5112 140.149 -27.7282 140.655L-51.6524 199.228C-51.7884 199.551 -52.0333 199.762 -52.3433 199.826C-52.5481 199.829 -52.7528 199.832 -52.9355 199.751ZM-70.7695 218.712C-71.2974 218.55 -71.577 217.986 -71.4132 217.461L-44.9149 136.247C-44.7388 135.715 -44.1839 135.441 -43.6506 135.615C-43.1351 135.781 -42.843 136.34 -43.0192 136.871L-69.5174 218.085C-69.6426 218.433 -69.9244 218.66 -70.2344 218.724C-70.4189 218.805 -70.5814 218.804 -70.7695 218.712ZM217.968 221.504C218.152 221.422 218.383 221.379 218.621 221.317C221.2 220.762 223.678 222.401 224.223 224.954C224.478 226.158 224.245 227.358 223.68 228.339L217.968 221.504ZM233.627 212.428C235.578 210.658 238.555 210.834 240.317 212.746C240.436 212.883 240.59 213.064 240.714 213.243C239.834 215.636 238.972 218.036 238.101 220.484C236.441 220.954 234.575 220.463 233.348 219.09C231.544 217.182 231.681 214.21 233.627 212.428ZM196.92 192.621C197.374 192.683 197.905 192.653 198.416 192.544C200.995 191.989 202.573 189.477 202.028 186.924C201.476 184.389 198.973 182.761 196.419 183.305C194.74 183.667 193.496 184.876 192.96 186.385L196.92 192.621ZM222.406 194.046C224.942 193.494 227.463 195.129 228.003 197.67C228.56 200.217 226.927 202.739 224.385 203.278C221.849 203.829 219.333 202.206 218.789 199.653C218.237 197.118 219.869 194.597 222.406 194.046ZM205.745 161.423C208.287 160.884 210.803 162.506 211.347 165.059C211.899 167.595 210.267 170.116 207.73 170.667C205.194 171.218 202.673 169.583 202.134 167.043C201.577 164.495 203.167 161.978 205.745 161.423ZM233.093 170.523C235.63 169.971 238.145 171.594 238.69 174.147C239.242 176.682 237.615 179.216 235.073 179.755C232.537 180.306 230.021 178.683 229.464 176.136C228.925 173.595 230.515 171.078 233.093 170.523ZM255.827 157.792C257.542 157.413 259.233 158.041 260.307 159.233L257.459 167.104C255.004 167.473 252.734 165.874 252.197 163.405C251.615 160.868 253.248 158.347 255.827 157.792ZM513.078 71.562L483.766 73.087C483.247 73.1117 482.738 72.6934 482.751 72.1607C482.765 71.6281 483.138 71.1415 483.679 71.1359L512.991 69.6109C513.51 69.5862 514.019 70.0045 514.006 70.5372C514.03 71.0236 513.708 71.4585 513.24 71.5633C513.157 71.5416 513.114 71.5457 513.078 71.562ZM514.021 84.2946L460.388 85.0939C459.858 85.0941 459.398 84.6541 459.411 84.1214C459.407 83.582 459.839 83.128 460.374 83.14L514.007 82.3407C514.537 82.3405 514.997 82.7806 514.996 83.3078C515.021 83.7942 514.658 84.2033 514.226 84.2918C514.168 84.2592 514.101 84.2742 514.021 84.2946ZM514.553 97.458L434.758 97.1017C434.223 97.0896 433.769 96.6618 433.777 96.1169C433.778 95.5897 434.222 95.1303 434.739 95.1355L514.534 95.4919C515.081 95.4985 515.536 95.9263 515.528 96.4712C515.51 96.9617 515.18 97.3124 514.754 97.4131C514.679 97.4756 514.632 97.4376 514.553 97.458ZM514.539 109.956L449.016 105.452C448.477 105.398 448.065 104.966 448.099 104.381C448.15 103.832 448.585 103.42 449.173 103.452L514.695 107.986C515.234 108.04 515.664 108.479 515.617 109.07C515.596 109.518 515.271 109.881 514.84 109.969C514.744 109.953 514.635 109.972 514.539 109.956ZM514.049 122.474L461.794 113.917C461.244 113.838 460.901 113.331 460.982 112.784C461.075 112.231 461.567 111.881 462.117 111.96L514.36 120.523C514.91 120.602 515.265 121.103 515.184 121.65C515.109 122.079 514.805 122.388 514.416 122.473C514.295 122.497 514.169 122.48 514.049 122.474ZM513.146 134.824L478.526 126.483C478.003 126.363 477.686 125.816 477.777 125.293C477.904 124.783 478.45 124.454 478.963 124.549L513.582 132.891C514.111 133.022 514.428 133.57 514.331 134.081C514.252 134.467 513.944 134.734 513.597 134.815C513.437 134.885 513.317 134.88 513.146 134.824ZM512.237 143.915L493.221 139.131C492.704 138.994 492.375 138.452 492.509 137.925C492.648 137.41 493.193 137.081 493.71 137.218L512.727 142.002C513.244 142.139 513.56 142.686 513.439 143.208C513.36 143.594 513.04 143.867 512.687 143.935C512.525 143.934 512.403 143.958 512.237 143.915ZM127.924 159.214L77.1325 243.214C71.2504 233.909 65.3082 223.606 59.609 212.26C48.7388 190.592 41.1921 170.146 35.9404 152.151C50.4798 154.175 65.9781 155.907 82.301 157.143C98.2634 158.362 113.526 158.999 127.924 159.214ZM579.749 10.6707C568.802 18.8913 558.052 26.4977 547.625 33.5374C558.632 38.9084 570.22 45.0903 582.23 52.2559C600.612 63.2003 616.742 74.5411 630.68 85.3881C631.218 68.2703 630.71 48.631 628.275 27.0358C626.259 9.07246 623.21 -7.17575 619.791 -21.6072C607.543 -11.0123 594.219 -0.190033 579.749 10.6707Z" fill="#F9B53F"/>
<path d="M295.241 140.112C286.956 141.933 278.611 143.62 270.078 145.214C107.687 175.215 -29.3557 143.949 -115.723 112.447C-116.735 112.09 -117.854 112.586 -118.253 113.61C-118.609 114.631 -118.122 115.761 -117.094 116.155C-30.2355 147.834 107.54 179.258 270.789 149.069C278.112 147.732 285.357 146.253 292.461 144.72C297.192 143.71 301.914 142.646 306.536 141.523C461.737 104.873 572.583 25.4545 639.918 -36.959C640.694 -37.6971 640.76 -38.9404 640.012 -39.7648C639.267 -40.5472 638.03 -40.6146 637.205 -39.8548C568.807 23.6433 455.017 104.817 295.241 140.112Z" fill="#F79748"/>
</svg>
