<svg width="650" height="444" viewBox="0 0 650 444" fill="none" xmlns="http://www.w3.org/2000/svg">
<path d="M272.579 173.548C272.282 162.663 272.611 152.671 273.251 143.726C285.949 150.376 299.546 157.013 314.018 163.503C326.906 169.286 339.427 174.464 351.468 179.103C344.227 183.801 336.544 189.215 328.522 195.496C324.379 198.758 320.136 202.213 315.891 205.92C302.264 217.741 291.07 229.467 282.041 240.078C278.425 226.265 275.146 209.622 273.515 190.561C273.024 184.684 272.702 178.997 272.579 173.548Z" fill="#3BA27A"/>
<path d="M401.887 227.03C400.75 221.986 399.588 216.986 398.441 211.936L396.665 204.179C395.836 200.537 394.999 196.934 394.171 193.292C406.412 196.996 419.419 200.563 433.108 203.883C447.665 207.364 461.687 210.2 475.036 212.545C469.84 220.363 463.852 228.763 456.889 237.428L452.441 242.87C451.303 244.181 450.163 245.521 449.022 246.861C442.341 254.58 435.688 261.529 429.28 267.792C427.168 269.815 425.144 271.742 423.088 273.62C420.092 276.378 417.146 279.003 414.333 281.454C413.055 275.851 411.744 270.228 410.484 264.62C409.939 262.246 409.394 259.872 408.863 257.476C406.542 247.344 404.208 237.161 401.887 227.03Z" fill="#446DB7"/>
<path d="M645.687 220.995L701.39 296.798C705.076 282.645 710.072 266.793 716.894 249.846C723.151 234.27 729.927 220.488 736.507 208.506C724.519 210.952 711.898 213.215 698.756 215.181C680.103 217.945 662.379 219.824 645.687 220.995ZM208.998 105.329C219.417 112.313 229.617 118.795 239.539 124.771C225.674 130.316 209.551 138.079 192.555 148.974C180.304 156.818 169.817 164.868 160.978 172.444C160.683 159.288 161.073 144.313 162.854 127.925C164.891 109.239 168.292 92.6732 171.989 78.6008C183.377 87.4246 195.718 96.4164 208.998 105.329Z" fill="#F14947"/>
<path d="M727.619 226.924C728.142 226.82 728.464 226.329 728.36 225.807L725.62 210.525C725.527 210.009 725.042 209.675 724.52 209.78C723.997 209.884 723.675 210.375 723.768 210.891L726.519 226.179C726.59 226.533 726.81 226.813 727.105 226.915C727.278 226.973 727.438 226.98 727.619 226.924ZM663.267 242.422C663.781 242.357 664.143 241.875 664.039 241.352L660.85 219.699C660.785 219.185 660.314 218.83 659.798 218.923C659.295 218.994 658.922 219.47 659.026 219.993L662.209 241.657C662.258 241.998 662.517 242.286 662.834 242.401C662.946 242.438 663.099 242.455 663.267 242.422ZM717.529 247.759C718.043 247.694 718.405 247.212 718.333 246.709L714.123 212.373C714.058 211.859 713.582 211.486 713.079 211.557C712.576 211.629 712.203 212.105 712.268 212.618L716.499 246.922C716.528 247.296 716.787 247.584 717.122 247.695C717.256 247.745 717.409 247.762 717.529 247.759ZM709.446 271.305C709.949 271.234 710.311 270.752 710.217 270.236L702.055 214.653C701.995 214.157 701.519 213.784 700.997 213.888C700.494 213.96 700.132 214.442 700.225 214.958L708.376 270.534C708.425 270.875 708.684 271.163 709.002 271.278C709.113 271.315 709.273 271.321 709.446 271.305ZM686.962 277.756C687.453 277.604 687.754 277.1 687.602 276.608L671.859 218.496C671.713 217.993 671.209 217.692 670.711 217.856C670.219 218.008 669.925 218.501 670.071 219.004L685.814 277.116C685.904 277.437 686.11 277.664 686.395 277.76C686.588 277.785 686.78 277.811 686.962 277.756ZM701.563 297.704C702.079 297.61 702.408 297.109 702.315 296.593L686.774 216.77C686.67 216.247 686.179 215.925 685.656 216.029C685.151 216.129 684.811 216.624 684.916 217.147L700.456 296.97C700.534 297.313 700.773 297.559 701.057 297.655C701.222 297.753 701.375 297.77 701.563 297.704ZM429.221 267.817C429.057 267.719 428.845 267.651 428.628 267.567C426.263 266.751 423.737 268.022 422.928 270.376C422.548 271.486 422.628 272.648 423.047 273.64L429.221 267.817ZM415.522 257.466C413.889 255.571 411.064 255.402 409.183 257.013C409.054 257.129 408.888 257.283 408.751 257.439C409.302 259.802 409.836 262.17 410.372 264.583C411.881 265.216 413.696 264.961 415.012 263.8C416.933 262.198 417.148 259.371 415.522 257.466ZM452.402 242.861C451.967 242.869 451.47 242.78 451.001 242.62C448.636 241.804 447.441 239.25 448.251 236.896C449.065 234.559 451.612 233.301 453.955 234.104C455.494 234.636 456.526 235.919 456.856 237.408L452.402 242.861ZM428.226 241.338C425.901 240.531 423.336 241.793 422.533 244.136C421.713 246.484 422.958 249.053 425.29 249.849C427.616 250.657 430.174 249.405 430.984 247.051C431.797 244.714 430.552 242.145 428.226 241.338ZM447.708 212.35C445.375 211.554 442.817 212.805 442.008 215.159C441.194 217.496 442.439 220.065 444.765 220.872C447.09 221.68 449.655 220.417 450.458 218.074C451.278 215.726 450.072 213.166 447.708 212.35ZM420.887 217.878C418.562 217.071 416.003 218.323 415.194 220.677C414.38 223.013 415.619 225.594 417.951 226.39C420.277 227.197 422.835 225.945 423.655 223.598C424.458 221.255 423.252 218.694 420.887 217.878ZM400.948 203.273C399.375 202.721 397.71 203.124 396.559 204.131L398.329 211.899C400.599 212.525 402.924 211.267 403.716 208.992C404.558 206.658 403.313 204.088 400.948 203.273ZM168.599 92.7074L196.036 97.4525C196.522 97.5342 197.05 97.1959 197.099 96.6904C197.148 96.1849 196.854 95.6826 196.344 95.6162L168.906 90.8711C168.42 90.7893 167.892 91.1277 167.843 91.6332C167.763 92.0906 168.016 92.5384 168.445 92.6903C168.526 92.6792 168.566 92.6878 168.599 92.7074ZM166.232 104.648L216.667 111.446C217.166 111.506 217.651 111.141 217.7 110.636C217.766 110.126 217.413 109.648 216.907 109.599L166.472 102.801C165.973 102.741 165.488 103.105 165.429 103.604C165.349 104.062 165.643 104.49 166.04 104.622C166.099 104.598 166.16 104.619 166.232 104.648ZM164.204 117.042L239.419 125.694C239.925 125.743 240.403 125.39 240.458 124.873C240.518 124.374 240.154 123.89 239.666 123.836L164.45 115.184C163.934 115.128 163.456 115.482 163.4 115.998C163.36 116.464 163.63 116.833 164.02 116.977C164.083 117.044 164.131 117.014 164.204 117.042ZM162.767 128.868L225.018 131.989C225.532 131.998 225.971 131.636 226.006 131.078C226.023 130.553 225.66 130.114 225.102 130.079L162.849 126.986C162.335 126.977 161.879 127.343 161.854 127.908C161.822 128.335 162.086 128.714 162.482 128.847C162.574 128.842 162.675 128.872 162.767 128.868ZM161.776 140.767L211.998 138.557C212.525 138.545 212.907 138.104 212.894 137.577C212.871 137.043 212.448 136.657 211.921 136.67L161.709 138.886C161.182 138.898 160.79 139.332 160.802 139.86C160.823 140.273 161.073 140.6 161.43 140.724C161.542 140.761 161.662 140.759 161.776 140.767ZM161.194 152.553L194.776 148.561C195.284 148.507 195.646 148.025 195.62 147.52C195.56 147.023 195.084 146.651 194.59 146.683L161.007 150.675C160.493 150.74 160.132 151.222 160.164 151.716C160.193 152.09 160.452 152.378 160.77 152.493C160.912 152.578 161.026 152.587 161.194 152.553ZM160.995 161.256L179.465 158.873C179.968 158.801 180.341 158.326 180.276 157.812C180.205 157.309 179.729 156.936 179.226 157.007L160.756 159.391C160.253 159.462 159.891 159.945 159.945 160.452C159.975 160.826 160.245 161.121 160.569 161.225C160.722 161.242 160.833 161.279 160.995 161.256ZM521.279 219.027L559.382 304.223C566.004 296.082 572.797 287.004 579.483 276.912C592.238 257.636 601.72 239.141 608.755 222.708C594.823 222.985 580.021 222.878 564.5 222.208C549.321 221.563 534.868 220.446 521.279 219.027ZM112.853 27.5859C122.213 36.5969 131.457 45.0045 140.464 52.8396C129.471 56.6811 117.836 61.2244 105.69 66.6508C87.1033 74.9348 70.5918 83.8473 56.2017 92.5395C57.6811 76.2834 60.4384 57.7596 65.2387 37.6024C69.2216 20.834 73.9794 5.80478 78.8755 -7.46378C89.1848 3.94007 100.482 15.6803 112.853 27.5859Z" fill="#F9B53F"/>
<path d="M365.867 182.104C373.461 184.761 381.127 187.297 388.981 189.766C538.487 236.445 671.222 222.304 756.244 202.229C757.238 202.005 758.235 202.6 758.492 203.614C758.709 204.62 758.119 205.634 757.105 205.891C671.6 226.078 538.157 240.287 387.864 193.333C381.12 191.243 374.466 189.028 367.952 186.778C363.611 185.289 359.287 183.75 355.062 182.167C213.101 130.007 117.889 42.3797 61.6951 -24.2566C61.0498 -25.0423 61.1318 -26.2261 61.9327 -26.9218C62.725 -27.5781 63.8978 -27.5026 64.587 -26.6907C121.657 41.0916 219.438 130.711 365.867 182.104Z" fill="#F79748"/>
</svg>
